<svg fill="#ffffff" width="100px" height="100px" viewBox="0 0 24 24" role="img" xmlns="http://www.w3.org/2000/svg">
  <path d="M16.405 5.676c-.115 0-.193.014-.274.033v.013h.014c.054.104.146.18.214.273.054.107.1.214.154.32l.014-.015c.094-.066.14-.172.14-.333-.04-.047-.046-.094-.08-.14-.04-.067-.126-.1-.18-.153zM5.77 18.87h-.927c-.03-1.562-.123-3.03-.27-4.41h-.008l-1.41 4.41H2.45l-1.4-4.41h-.01c-.103 1.323-.168 2.793-.195 4.41H0c.055-1.966.192-3.81.41-5.53h1.15l1.335 4.064h.008L4.25 13.34h1.095c.242 2.015.384 3.86.428 5.53zm4.017-4.08c-.378 2.045-.876 3.533-1.492 4.46-.482.716-1.01 1.073-1.583 1.073-.153 0-.34-.046-.566-.138v-.494c.11.017.24.026.386.026.268 0 .483-.075.647-.222.197-.18.295-.382.295-.605 0-.155-.077-.47-.23-.944L6.23 14.79h.91l.727 2.36c.164.536.233.91.205 1.123.4-1.064.678-2.227.835-3.483h.88zM22.112 18.87h-2.63v-5.53h.885v4.85h1.745zM18.792 19.005l-1.016-.5c.09-.076.177-.158.255-.25.433-.506.648-1.258.648-2.253 0-1.83-.718-2.746-2.155-2.746-.704 0-1.254.232-1.65.697-.43.508-.646 1.256-.646 2.245 0 .972.19 1.686.574 2.14.35.41.877.615 1.583.615.264 0 .506-.033.725-.098l1.325.772.36-.622zM15.5 17.763c-.225-.36-.337-.94-.337-1.736 0-1.393.424-2.09 1.27-2.09.443 0 .77.167.977.5.224.362.336.936.336 1.723 0 1.404-.424 2.108-1.27 2.108-.445 0-.77-.167-.978-.5zM13.842 17.338c0 .47-.172.856-.516 1.156s-.803.45-1.384.45c-.543 0-1.064-.172-1.573-.515l.237-.476c.438.22.833.328 1.19.328.332 0 .593-.073.783-.22.188-.147.3-.354.3-.615 0-.33-.23-.61-.648-.845-.388-.213-1.163-.657-1.163-.657-.422-.307-.632-.636-.632-1.177 0-.45.157-.81.47-1.085.315-.278.72-.415 1.22-.415.512 0 .98.136 1.4.41l-.213.476c-.36-.152-.715-.23-1.064-.23-.283 0-.502.068-.654.206-.153.136-.248.31-.248.524 0 .328.234.61.666.85.393.215 1.187.67 1.187.67.433.305.648.63.648 1.168zM23.224 11.486c-.535-.014-.95.04-1.297.188-.1.04-.26.04-.274.167.055.053.063.14.11.214.08.134.218.313.346.407.14.11.28.216.427.31.26.16.555.255.81.416.145.094.293.213.44.313.073.05.12.14.214.172v-.02c-.046-.06-.06-.147-.105-.214-.067-.067-.134-.127-.2-.193-.194-.26-.435-.487-.695-.675-.214-.146-.682-.35-.77-.595l-.013-.014c.146-.013.32-.066.46-.106.227-.06.435-.047.67-.106.106-.027.213-.06.32-.094v-.06c-.12-.12-.21-.283-.334-.395-.34-.295-.717-.582-1.104-.823-.21-.134-.476-.22-.697-.334-.08-.04-.214-.06-.26-.127-.12-.146-.19-.34-.275-.514-.192-.368-.38-.775-.547-1.163-.12-.262-.193-.523-.34-.763-.69-1.137-1.437-1.826-2.586-2.5-.247-.14-.543-.2-.856-.274-.167-.008-.334-.02-.500-.027-.110-.047-.216-.174-.310-.235-.380-.240-1.364-.760-1.644-.072-.180.434.267.862.422 1.082.115.153.260.328.340.500.047.116.060.235.107.356.106.294.207.622.347.897.073.140.153.287.247.413.054.073.146.107.167.227-.094.136-.100.334-.154.500-.240.757-.146 1.693.194 2.250.107.166.362.534.703.393.300-.120.234-.500.320-.835.020-.080.007-.133.048-.187v.015c.094.188.188.367.274.555.206.328.566.668.867.895.160.120.287.328.487.402v-.020h-.015c-.043-.058-.100-.086-.154-.133-.120-.120-.255-.267-.350-.400-.280-.377-.527-.790-.747-1.218-.110-.210-.202-.436-.290-.643-.040-.080-.040-.200-.107-.240-.100.146-.247.273-.320.453-.127.288-.140.642-.188 1.010-.027.007-.014 0-.027.014-.214-.052-.287-.274-.367-.460-.200-.475-.233-1.238-.060-1.785.047-.140.247-.582.167-.716-.042-.127-.174-.200-.247-.303-.087-.124-.180-.285-.240-.427-.160-.374-.240-.788-.414-1.162-.080-.173-.220-.354-.334-.513-.127-.180-.267-.307-.368-.520-.033-.073-.080-.194-.027-.274.014-.054.042-.075.094-.090.088-.072.335.022.422.062.247.100.455.194.662.334.094.066.195.193.315.226h.140c.214.047.455.014.655.073.355.114.675.280.962.460.876.556 1.596 1.345 2.085 2.286.080.154.115.295.188.455.140.330.313.663.455.982.140.315.275.636.476.897.100.140.502.213.682.286.133.060.340.115.460.188.230.140.454.300.670.454.110.076.443.243.463.378z"/>
</svg>

