<svg xmlns="http://www.w3.org/2000/svg" xmlns:xlink="http://www.w3.org/1999/xlink" width="170" zoomAndPan="magnify" viewBox="0 0 127.5 37.5" height="50" preserveAspectRatio="xMidYMid meet" version="1.0"><defs><g/><clipPath id="170567c340"><path d="M 45.578125 2.097656 L 77.402344 2.097656 L 77.402344 33.921875 L 45.578125 33.921875 Z M 45.578125 2.097656 " clip-rule="nonzero"/></clipPath></defs><g clip-path="url(#170567c340)"><path fill="#fffef9" d="M 61.457031 33.851562 C 52.683594 33.851562 45.578125 26.699219 45.578125 17.972656 C 45.578125 9.25 52.683594 2.097656 61.457031 2.097656 C 70.226562 2.097656 77.332031 9.203125 77.332031 17.972656 C 77.332031 26.746094 70.179688 33.851562 61.457031 33.851562 Z M 61.457031 3.078125 C 53.222656 3.078125 46.558594 9.742188 46.558594 17.972656 C 46.558594 26.207031 53.222656 32.871094 61.457031 32.871094 C 69.6875 32.871094 76.351562 26.207031 76.351562 17.972656 C 76.351562 9.742188 69.640625 3.078125 61.457031 3.078125 Z M 61.457031 3.078125 " fill-opacity="1" fill-rule="nonzero"/></g><g fill="#122620" fill-opacity="1"><g transform="translate(33.699334, 19.743206)"><g><path d="M 10.453125 0.8125 L 10.6875 -1.417969 L 11.179688 -5.234375 C 11.339844 -6.433594 11.507812 -7.601562 11.683594 -8.746094 C 11.863281 -9.894531 12.074219 -11.074219 12.308594 -12.277344 C 12.546875 -13.480469 12.820312 -14.777344 13.136719 -16.164062 L 13.917969 -15.988281 L 13.917969 -15.1875 C 13.703125 -15.1875 13.398438 -15.15625 13 -15.089844 C 12.5625 -15.019531 12.082031 -14.9375 11.554688 -14.839844 C 11.03125 -14.738281 10.507812 -14.632812 9.984375 -14.511719 L 8.523438 -14.183594 L 7.5 -13.949219 L 7.320312 -14.726562 L 7.53125 -13.957031 L 5.992188 -13.539062 C 5.503906 -13.40625 5.007812 -13.261719 4.503906 -13.109375 C 4.265625 -13.039062 3.957031 -12.941406 3.582031 -12.816406 C 3.226562 -12.699219 2.898438 -12.566406 2.589844 -12.421875 C 2.472656 -12.367188 2.375 -12.3125 2.304688 -12.261719 C 2.28125 -12.246094 2.261719 -12.230469 2.25 -12.214844 L 2.246094 -12.214844 L 1.578125 -12.65625 L 2.34375 -12.894531 C 2.335938 -12.898438 2.332031 -12.902344 2.328125 -12.90625 C 2.511719 -12.792969 2.683594 -12.667969 2.847656 -12.535156 L 2.347656 -11.910156 L 2.820312 -12.558594 L 5.316406 -10.742188 C 6.523438 -9.832031 7.585938 -8.832031 8.5 -7.738281 C 9.433594 -6.625 10.175781 -5.351562 10.734375 -3.917969 C 11.101562 -3.007812 11.355469 -2.269531 11.492188 -1.703125 C 11.628906 -1.152344 11.722656 -0.695312 11.773438 -0.328125 C 11.816406 -0.0273438 11.882812 0.269531 11.972656 0.558594 L 11.207031 0.789062 L 11.949219 0.492188 L 11.992188 0.597656 L 11.25 0.898438 Z M 11.707031 4.191406 L 10.449219 1.054688 L 10.441406 1.023438 C 10.328125 0.65625 10.246094 0.285156 10.191406 -0.0976562 C 10.144531 -0.414062 10.058594 -0.824219 9.9375 -1.328125 C 9.820312 -1.816406 9.585938 -2.484375 9.242188 -3.339844 C 8.75 -4.609375 8.09375 -5.734375 7.273438 -6.710938 C 6.4375 -7.710938 5.472656 -8.621094 4.375 -9.449219 L 1.863281 -11.273438 L 1.847656 -11.285156 C 1.726562 -11.382812 1.601562 -11.472656 1.46875 -11.554688 C 1.148438 -11.761719 0.929688 -12.050781 0.816406 -12.421875 L 0.703125 -12.785156 L 0.914062 -13.101562 C 1.109375 -13.398438 1.441406 -13.652344 1.914062 -13.875 C 2.273438 -14.042969 2.664062 -14.195312 3.078125 -14.335938 C 3.46875 -14.464844 3.789062 -14.566406 4.035156 -14.640625 C 4.554688 -14.800781 5.070312 -14.945312 5.574219 -15.085938 L 7.128906 -15.503906 L 8.167969 -15.742188 L 9.632812 -16.074219 C 10.175781 -16.199219 10.71875 -16.308594 11.261719 -16.410156 C 11.800781 -16.511719 12.296875 -16.597656 12.742188 -16.671875 C 13.226562 -16.75 13.617188 -16.789062 13.917969 -16.789062 L 14.917969 -16.789062 L 14.699219 -15.8125 C 14.386719 -14.4375 14.113281 -13.15625 13.878906 -11.96875 C 13.648438 -10.785156 13.445312 -9.628906 13.265625 -8.5 C 13.089844 -7.367188 12.925781 -6.210938 12.769531 -5.03125 L 12.277344 -1.222656 L 11.484375 -1.324219 L 12.28125 -1.238281 L 12.046875 0.980469 Z M 0.0546875 -12.808594 C 0.0546875 -13.191406 0.199219 -13.535156 0.488281 -13.839844 C 0.667969 -14.03125 0.871094 -14.203125 1.097656 -14.355469 C 1.285156 -14.480469 1.4375 -14.582031 1.5625 -14.660156 L 1.617188 -14.695312 L 3.277344 -15.390625 L 3.304688 -15.398438 C 4.984375 -15.980469 6.695312 -16.464844 8.4375 -16.855469 C 10.183594 -17.246094 11.929688 -17.535156 13.683594 -17.722656 C 13.746094 -17.730469 13.792969 -17.738281 13.824219 -17.746094 C 13.761719 -17.730469 13.691406 -17.683594 13.617188 -17.609375 C 13.59375 -17.585938 13.574219 -17.554688 13.554688 -17.507812 C 13.65625 -17.746094 13.832031 -17.910156 14.082031 -18 C 14.203125 -18.046875 14.339844 -18.070312 14.492188 -18.070312 C 14.628906 -18.070312 14.742188 -18.0625 14.828125 -18.050781 C 15.164062 -18.007812 15.394531 -17.851562 15.53125 -17.582031 C 15.535156 -17.574219 15.542969 -17.558594 15.554688 -17.542969 C 15.472656 -17.675781 15.367188 -17.769531 15.234375 -17.832031 C 15.199219 -17.847656 15.167969 -17.859375 15.140625 -17.863281 C 15.15625 -17.863281 15.195312 -17.859375 15.253906 -17.851562 L 15.199219 -17.054688 L 15.199219 -17.855469 L 15.539062 -17.855469 C 15.761719 -17.855469 16.003906 -17.859375 16.265625 -17.867188 C 16.542969 -17.875 16.804688 -17.875 17.054688 -17.875 L 17.480469 -17.875 L 18.34375 -17.785156 C 18.757812 -17.742188 19.242188 -17.6875 19.804688 -17.613281 C 20.367188 -17.542969 20.945312 -17.460938 21.535156 -17.367188 C 22.136719 -17.269531 22.695312 -17.164062 23.21875 -17.046875 C 23.765625 -16.921875 24.21875 -16.789062 24.574219 -16.644531 C 25.21875 -16.378906 25.539062 -15.988281 25.539062 -15.476562 C 25.539062 -15.195312 25.476562 -14.960938 25.351562 -14.769531 C 25.253906 -14.617188 25.128906 -14.503906 24.972656 -14.421875 C 24.828125 -14.347656 24.671875 -14.3125 24.503906 -14.3125 C 24.332031 -14.3125 24.132812 -14.34375 23.910156 -14.40625 C 23.769531 -14.445312 23.589844 -14.496094 23.371094 -14.550781 C 22.964844 -14.644531 22.480469 -14.742188 21.914062 -14.847656 C 21.351562 -14.953125 20.761719 -15.046875 20.148438 -15.128906 C 19.535156 -15.214844 18.949219 -15.28125 18.394531 -15.328125 C 17.847656 -15.375 17.386719 -15.402344 17.011719 -15.402344 C 16.667969 -15.402344 16.363281 -15.386719 16.097656 -15.363281 C 15.78125 -15.332031 15.410156 -15.316406 14.984375 -15.316406 L 14.984375 -16.117188 L 15.742188 -15.863281 C 15.738281 -15.847656 15.707031 -15.707031 15.648438 -15.4375 C 15.585938 -15.140625 15.515625 -14.800781 15.4375 -14.417969 C 15.359375 -14.042969 15.292969 -13.695312 15.238281 -13.382812 C 15.183594 -13.070312 15.148438 -12.871094 15.136719 -12.78125 L 15.132812 -12.765625 L 13.980469 -6.242188 C 13.796875 -5.082031 13.640625 -3.953125 13.503906 -2.859375 C 13.371094 -1.753906 13.222656 -0.628906 13.066406 0.515625 C 13.027344 0.8125 12.996094 1.089844 12.976562 1.34375 C 12.953125 1.628906 12.917969 1.941406 12.875 2.28125 L 12.082031 2.175781 L 12.878906 2.257812 L 12.171875 9.195312 C 12.160156 9.328125 12.148438 9.496094 12.132812 9.703125 C 12.113281 9.992188 12.058594 10.261719 11.964844 10.503906 C 11.882812 10.734375 11.75 10.914062 11.578125 11.050781 C 11.375 11.203125 11.148438 11.28125 10.886719 11.28125 C 10.554688 11.28125 10.289062 11.164062 10.085938 10.925781 C 10.097656 10.9375 10.105469 10.949219 10.113281 10.953125 L 9.695312 10.703125 L 10.085938 4.15625 L 10.886719 4.203125 L 10.085938 4.203125 C 10.085938 3.621094 10.046875 3 9.972656 2.332031 C 9.898438 1.65625 9.792969 0.984375 9.664062 0.3125 C 9.53125 -0.355469 9.390625 -0.957031 9.242188 -1.492188 C 9.035156 -2.25 8.800781 -2.917969 8.535156 -3.496094 C 8.269531 -4.082031 7.964844 -4.632812 7.621094 -5.15625 C 7.273438 -5.6875 6.878906 -6.230469 6.441406 -6.777344 C 6.171875 -7.125 5.84375 -7.460938 5.457031 -7.789062 C 5.042969 -8.140625 4.617188 -8.484375 4.171875 -8.816406 C 3.71875 -9.15625 3.308594 -9.460938 2.941406 -9.726562 L 1.007812 -11.109375 C 0.792969 -11.265625 0.597656 -11.449219 0.425781 -11.660156 C 0.175781 -11.964844 0.0546875 -12.347656 0.0546875 -12.808594 Z M 1.65625 -12.808594 C 1.65625 -12.75 1.660156 -12.707031 1.667969 -12.675781 L 1.664062 -12.671875 C 1.75 -12.570312 1.839844 -12.484375 1.9375 -12.414062 L 3.886719 -11.019531 C 4.261719 -10.746094 4.675781 -10.441406 5.132812 -10.097656 C 5.601562 -9.746094 6.054688 -9.382812 6.496094 -9.007812 C 6.964844 -8.609375 7.363281 -8.199219 7.691406 -7.777344 C 8.160156 -7.191406 8.585938 -6.605469 8.960938 -6.03125 C 9.347656 -5.441406 9.691406 -4.820312 9.992188 -4.164062 C 10.292969 -3.503906 10.558594 -2.757812 10.78125 -1.925781 C 10.945312 -1.347656 11.09375 -0.707031 11.234375 0.0078125 C 11.375 0.71875 11.484375 1.433594 11.5625 2.152344 C 11.644531 2.878906 11.6875 3.5625 11.6875 4.203125 L 11.6875 4.230469 L 11.324219 10.316406 L 10.523438 10.265625 L 10.933594 9.582031 C 11.082031 9.667969 11.203125 9.769531 11.300781 9.886719 C 11.183594 9.75 11.046875 9.679688 10.886719 9.679688 C 10.78125 9.679688 10.683594 9.714844 10.597656 9.785156 C 10.53125 9.832031 10.488281 9.886719 10.46875 9.941406 C 10.503906 9.847656 10.527344 9.730469 10.535156 9.59375 C 10.550781 9.371094 10.566406 9.183594 10.582031 9.035156 L 11.285156 2.085938 L 11.289062 2.074219 C 11.328125 1.761719 11.359375 1.472656 11.378906 1.21875 C 11.402344 0.933594 11.4375 0.625 11.480469 0.296875 C 11.636719 -0.839844 11.78125 -1.953125 11.917969 -3.054688 C 12.054688 -4.164062 12.214844 -5.320312 12.402344 -6.523438 L 13.554688 -13.03125 L 14.34375 -12.894531 L 13.550781 -13.003906 C 13.566406 -13.113281 13.605469 -13.332031 13.664062 -13.664062 C 13.722656 -13.988281 13.789062 -14.347656 13.871094 -14.738281 C 13.949219 -15.125 14.019531 -15.46875 14.085938 -15.769531 C 14.15625 -16.097656 14.203125 -16.296875 14.226562 -16.367188 L 14.40625 -16.917969 L 14.984375 -16.917969 C 15.355469 -16.917969 15.675781 -16.929688 15.941406 -16.957031 C 16.257812 -16.984375 16.617188 -17 17.011719 -17 C 17.433594 -17 17.941406 -16.976562 18.535156 -16.925781 C 19.117188 -16.871094 19.726562 -16.804688 20.363281 -16.714844 C 21.003906 -16.628906 21.617188 -16.53125 22.207031 -16.421875 C 22.792969 -16.3125 23.3125 -16.207031 23.757812 -16.101562 C 23.996094 -16.042969 24.191406 -15.992188 24.351562 -15.945312 C 24.429688 -15.925781 24.480469 -15.914062 24.503906 -15.914062 C 24.414062 -15.914062 24.328125 -15.890625 24.242188 -15.847656 C 24.144531 -15.796875 24.066406 -15.726562 24.007812 -15.636719 C 23.976562 -15.585938 23.953125 -15.535156 23.941406 -15.484375 C 23.941406 -15.476562 23.9375 -15.46875 23.9375 -15.464844 C 23.9375 -15.464844 23.9375 -15.46875 23.9375 -15.476562 C 23.9375 -15.382812 23.960938 -15.296875 24 -15.21875 C 24.023438 -15.171875 24.050781 -15.136719 24.082031 -15.105469 C 24.085938 -15.101562 24.089844 -15.101562 24.09375 -15.097656 C 24.089844 -15.101562 24.082031 -15.105469 24.074219 -15.109375 C 24.046875 -15.125 24.011719 -15.144531 23.964844 -15.160156 C 23.695312 -15.273438 23.328125 -15.378906 22.867188 -15.484375 C 22.378906 -15.59375 21.851562 -15.695312 21.285156 -15.785156 C 20.707031 -15.875 20.148438 -15.957031 19.601562 -16.027344 C 19.050781 -16.097656 18.578125 -16.152344 18.179688 -16.195312 L 17.355469 -16.28125 L 17.4375 -17.078125 L 17.4375 -16.277344 L 17.054688 -16.277344 C 16.820312 -16.277344 16.570312 -16.273438 16.308594 -16.265625 C 16.03125 -16.257812 15.773438 -16.253906 15.539062 -16.253906 L 15.167969 -16.253906 L 15.140625 -16.257812 C 15 -16.265625 14.882812 -16.28125 14.789062 -16.304688 C 14.511719 -16.367188 14.308594 -16.503906 14.179688 -16.71875 C 14.148438 -16.769531 14.121094 -16.820312 14.097656 -16.867188 C 14.191406 -16.683594 14.332031 -16.554688 14.519531 -16.488281 C 14.554688 -16.476562 14.589844 -16.46875 14.617188 -16.464844 C 14.597656 -16.464844 14.558594 -16.46875 14.492188 -16.46875 C 14.53125 -16.46875 14.578125 -16.476562 14.632812 -16.5 C 14.816406 -16.566406 14.945312 -16.691406 15.027344 -16.878906 C 14.964844 -16.734375 14.871094 -16.601562 14.75 -16.476562 C 14.625 -16.355469 14.464844 -16.265625 14.261719 -16.207031 C 14.152344 -16.175781 14.015625 -16.152344 13.851562 -16.132812 C 12.160156 -15.949219 10.472656 -15.667969 8.789062 -15.292969 C 7.101562 -14.914062 5.449219 -14.445312 3.824219 -13.886719 L 3.566406 -14.644531 L 3.875 -13.90625 L 2.292969 -13.242188 L 1.984375 -13.980469 L 2.410156 -13.300781 C 2.304688 -13.238281 2.167969 -13.144531 1.996094 -13.03125 C 1.867188 -12.941406 1.75 -12.84375 1.648438 -12.734375 C 1.640625 -12.726562 1.636719 -12.722656 1.632812 -12.71875 C 1.632812 -12.722656 1.636719 -12.726562 1.636719 -12.730469 C 1.648438 -12.753906 1.65625 -12.78125 1.65625 -12.808594 Z M 1.65625 -12.808594 "/></g></g></g><g fill="#122620" fill-opacity="1"><g transform="translate(47.78668, 19.743206)"><g><path d="M 0.859375 -1.265625 C 0.839844 -1.257812 0.824219 -1.25 0.808594 -1.242188 L 0.8125 -1.246094 C 0.847656 -1.28125 0.890625 -1.34375 0.9375 -1.433594 C 1.066406 -1.675781 1.160156 -1.964844 1.21875 -2.292969 C 1.277344 -2.632812 1.292969 -2.941406 1.261719 -3.214844 C 1.253906 -3.300781 1.242188 -3.363281 1.222656 -3.402344 C 1.230469 -3.390625 1.246094 -3.375 1.273438 -3.355469 L 1.730469 -4.011719 L 2.5 -3.800781 C 2.449219 -3.617188 2.363281 -3.367188 2.238281 -3.050781 C 2.132812 -2.777344 2.03125 -2.476562 1.929688 -2.144531 C 1.835938 -1.847656 1.777344 -1.554688 1.746094 -1.269531 C 1.726562 -1.085938 1.742188 -0.9375 1.792969 -0.832031 L 1.066406 -0.492188 Z M 1.273438 0.28125 L 0.628906 0.453125 L 0.34375 -0.148438 C 0.164062 -0.527344 0.101562 -0.957031 0.152344 -1.441406 C 0.195312 -1.824219 0.277344 -2.214844 0.398438 -2.613281 C 0.511719 -2.980469 0.628906 -3.320312 0.75 -3.632812 C 0.851562 -3.898438 0.921875 -4.09375 0.957031 -4.222656 L 1.253906 -5.316406 L 2.183594 -4.671875 C 2.570312 -4.402344 2.796875 -3.972656 2.855469 -3.378906 C 2.898438 -2.957031 2.878906 -2.503906 2.796875 -2.019531 C 2.710938 -1.523438 2.5625 -1.074219 2.351562 -0.679688 C 2.070312 -0.15625 1.710938 0.164062 1.273438 0.28125 Z M -0.800781 -1.214844 C -0.800781 -1.457031 -0.753906 -1.789062 -0.664062 -2.207031 C -0.582031 -2.601562 -0.460938 -3.019531 -0.308594 -3.46875 C -0.15625 -3.917969 0.015625 -4.34375 0.203125 -4.75 C 0.414062 -5.191406 0.644531 -5.558594 0.894531 -5.855469 C 1.261719 -6.285156 1.675781 -6.5 2.132812 -6.5 C 2.363281 -6.5 2.566406 -6.441406 2.75 -6.324219 C 2.933594 -6.207031 3.070312 -6.042969 3.164062 -5.832031 C 3.304688 -5.515625 3.328125 -5.214844 3.234375 -4.933594 L 3.226562 -4.910156 L 3.21875 -4.890625 C 3.144531 -4.703125 3.023438 -4.535156 2.855469 -4.382812 C 2.824219 -4.355469 2.800781 -4.324219 2.777344 -4.292969 L 2.113281 -4.738281 L 2.882812 -4.957031 C 2.875 -4.984375 2.867188 -5.003906 2.859375 -5.015625 C 2.871094 -5 2.886719 -4.980469 2.910156 -4.957031 C 3.066406 -4.789062 3.21875 -4.578125 3.363281 -4.324219 C 3.53125 -4.027344 3.640625 -3.652344 3.6875 -3.199219 C 3.734375 -2.777344 3.6875 -2.246094 3.558594 -1.609375 C 3.371094 -0.722656 3.058594 -0.0429688 2.617188 0.4375 C 2.117188 0.976562 1.585938 1.25 1.023438 1.25 C 0.484375 1.25 0.0351562 1.003906 -0.332031 0.507812 C -0.644531 0.0898438 -0.800781 -0.484375 -0.800781 -1.214844 Z M 0.800781 -1.214844 C 0.800781 -0.839844 0.851562 -0.582031 0.953125 -0.445312 C 0.988281 -0.394531 1.019531 -0.363281 1.046875 -0.347656 C 1.039062 -0.351562 1.035156 -0.351562 1.023438 -0.351562 C 1.050781 -0.351562 1.085938 -0.363281 1.132812 -0.390625 C 1.226562 -0.441406 1.328125 -0.527344 1.441406 -0.648438 C 1.679688 -0.910156 1.867188 -1.339844 1.992188 -1.933594 C 2.089844 -2.40625 2.125 -2.773438 2.097656 -3.035156 C 2.070312 -3.261719 2.03125 -3.429688 1.972656 -3.53125 C 1.890625 -3.675781 1.8125 -3.785156 1.742188 -3.859375 C 1.539062 -4.074219 1.40625 -4.292969 1.34375 -4.519531 L 1.242188 -4.875 L 1.445312 -5.183594 C 1.539062 -5.324219 1.652344 -5.449219 1.777344 -5.566406 C 1.78125 -5.566406 1.78125 -5.570312 1.78125 -5.570312 C 1.78125 -5.566406 1.777344 -5.566406 1.773438 -5.558594 C 1.757812 -5.539062 1.746094 -5.515625 1.734375 -5.484375 L 2.476562 -5.1875 L 1.714844 -5.441406 C 1.691406 -5.367188 1.683594 -5.292969 1.691406 -5.226562 C 1.695312 -5.210938 1.699219 -5.195312 1.703125 -5.183594 C 1.738281 -5.101562 1.796875 -5.03125 1.882812 -4.976562 C 1.964844 -4.925781 2.050781 -4.898438 2.132812 -4.898438 C 2.171875 -4.898438 2.199219 -4.902344 2.214844 -4.914062 C 2.191406 -4.902344 2.15625 -4.867188 2.113281 -4.816406 C 1.953125 -4.628906 1.800781 -4.378906 1.652344 -4.066406 C 1.488281 -3.714844 1.339844 -3.347656 1.207031 -2.957031 C 1.074219 -2.566406 0.972656 -2.203125 0.898438 -1.871094 C 0.832031 -1.5625 0.800781 -1.34375 0.800781 -1.214844 Z M 0.800781 -1.214844 "/></g></g></g><g fill="#122620" fill-opacity="1"><g transform="translate(51.543307, 19.743206)"><g><path d="M 0.300781 0.714844 C 0 0.714844 -0.25 0.609375 -0.449219 0.402344 C -0.609375 0.238281 -0.707031 0.0273438 -0.746094 -0.226562 C -0.785156 -0.464844 -0.796875 -0.714844 -0.777344 -0.976562 C -0.765625 -1.15625 -0.757812 -1.257812 -0.757812 -1.28125 L 0.0429688 -1.28125 L -0.757812 -1.234375 C -0.773438 -1.515625 -0.777344 -1.796875 -0.769531 -2.082031 C -0.761719 -2.324219 -0.765625 -2.570312 -0.777344 -2.816406 L -0.777344 -2.859375 C -0.777344 -2.964844 -0.777344 -3.164062 -0.769531 -3.445312 C -0.761719 -3.746094 -0.738281 -4.066406 -0.699219 -4.402344 C -0.65625 -4.765625 -0.59375 -5.085938 -0.507812 -5.363281 C -0.441406 -5.574219 -0.351562 -5.746094 -0.242188 -5.882812 C -0.0351562 -6.136719 0.222656 -6.265625 0.535156 -6.265625 C 0.832031 -6.265625 1.082031 -6.199219 1.285156 -6.070312 C 1.4375 -5.976562 1.554688 -5.847656 1.640625 -5.695312 C 1.722656 -5.550781 1.765625 -5.390625 1.769531 -5.21875 C 1.78125 -4.996094 1.769531 -4.71875 1.734375 -4.386719 L 1.734375 -4.367188 L 1.730469 -4.347656 C 1.722656 -4.285156 1.71875 -4.214844 1.71875 -4.128906 L 1.71875 -3.777344 C 1.71875 -3.550781 1.699219 -3.371094 1.65625 -3.246094 C 1.667969 -3.289062 1.675781 -3.320312 1.679688 -3.335938 C 1.675781 -3.3125 1.675781 -3.273438 1.675781 -3.222656 L 0.875 -3.222656 L 0.40625 -3.871094 C 0.511719 -3.949219 0.605469 -4.035156 0.695312 -4.140625 C 0.980469 -4.476562 1.414062 -4.644531 1.984375 -4.644531 C 2.074219 -4.644531 2.191406 -4.644531 2.34375 -4.652344 C 2.519531 -4.660156 2.707031 -4.664062 2.902344 -4.664062 C 3.25 -4.664062 3.578125 -4.644531 3.882812 -4.605469 C 4.140625 -4.570312 4.351562 -4.496094 4.523438 -4.386719 C 4.660156 -4.292969 4.769531 -4.179688 4.847656 -4.042969 C 4.9375 -3.890625 4.984375 -3.722656 4.984375 -3.542969 C 4.984375 -3.285156 4.90625 -3.058594 4.75 -2.863281 C 4.605469 -2.6875 4.417969 -2.5625 4.179688 -2.496094 C 3.957031 -2.433594 3.703125 -2.402344 3.414062 -2.402344 C 3.261719 -2.402344 3.101562 -2.40625 2.941406 -2.414062 C 2.804688 -2.417969 2.683594 -2.421875 2.582031 -2.421875 C 2.265625 -2.421875 2.082031 -2.414062 2.023438 -2.394531 C 2.070312 -2.410156 2.109375 -2.429688 2.144531 -2.453125 C 2.148438 -2.457031 2.152344 -2.460938 2.15625 -2.464844 C 2.15625 -2.464844 2.152344 -2.460938 2.152344 -2.457031 C 2.113281 -2.417969 2.066406 -2.351562 2.011719 -2.257812 L 1.324219 -2.667969 L 2.027344 -2.289062 C 1.9375 -2.125 1.851562 -1.945312 1.769531 -1.753906 C 1.703125 -1.597656 1.652344 -1.425781 1.621094 -1.234375 L 1.613281 -1.1875 C 1.585938 -1.070312 1.574219 -0.945312 1.578125 -0.816406 C 1.589844 -0.515625 1.550781 -0.246094 1.464844 -0.0117188 C 1.367188 0.257812 1.1875 0.457031 0.925781 0.582031 C 0.746094 0.671875 0.535156 0.714844 0.300781 0.714844 Z M 0.300781 -0.886719 C 0.304688 -0.886719 0.3125 -0.886719 0.3125 -0.886719 C 0.3125 -0.886719 0.3125 -0.886719 0.308594 -0.886719 C 0.28125 -0.878906 0.253906 -0.871094 0.222656 -0.855469 C 0.0976562 -0.796875 0.0117188 -0.699219 -0.0351562 -0.566406 C -0.0234375 -0.601562 -0.015625 -0.667969 -0.0195312 -0.761719 C -0.03125 -1.03125 -0.0078125 -1.292969 0.0507812 -1.546875 L 0.832031 -1.367188 L 0.0429688 -1.496094 C 0.0976562 -1.816406 0.183594 -2.117188 0.300781 -2.390625 C 0.402344 -2.625 0.507812 -2.84375 0.617188 -3.046875 L 0.628906 -3.0625 L 0.636719 -3.078125 C 0.910156 -3.539062 1.214844 -3.820312 1.542969 -3.921875 C 1.753906 -3.988281 2.101562 -4.023438 2.582031 -4.023438 C 2.710938 -4.023438 2.855469 -4.019531 3.015625 -4.011719 C 3.152344 -4.003906 3.285156 -4.003906 3.414062 -4.003906 C 3.554688 -4.003906 3.660156 -4.011719 3.738281 -4.035156 C 3.652344 -4.011719 3.574219 -3.957031 3.503906 -3.871094 C 3.421875 -3.769531 3.382812 -3.660156 3.382812 -3.542969 C 3.382812 -3.433594 3.410156 -3.332031 3.46875 -3.234375 C 3.511719 -3.15625 3.570312 -3.09375 3.640625 -3.046875 C 3.671875 -3.027344 3.699219 -3.015625 3.71875 -3.007812 C 3.710938 -3.011719 3.695312 -3.011719 3.671875 -3.015625 C 3.4375 -3.046875 3.179688 -3.0625 2.902344 -3.0625 C 2.730469 -3.0625 2.566406 -3.058594 2.414062 -3.054688 C 2.238281 -3.046875 2.097656 -3.042969 1.984375 -3.042969 C 1.90625 -3.042969 1.851562 -3.035156 1.820312 -3.027344 C 1.847656 -3.035156 1.875 -3.058594 1.910156 -3.097656 C 1.742188 -2.898438 1.554688 -2.726562 1.347656 -2.574219 L 0.0742188 -1.652344 L 0.0742188 -3.222656 C 0.0742188 -3.453125 0.09375 -3.628906 0.136719 -3.753906 C 0.125 -3.710938 0.117188 -3.683594 0.113281 -3.664062 C 0.117188 -3.6875 0.117188 -3.726562 0.117188 -3.777344 L 0.117188 -4.128906 C 0.117188 -4.289062 0.128906 -4.4375 0.148438 -4.574219 L 0.9375 -4.460938 L 0.140625 -4.535156 C 0.167969 -4.800781 0.175781 -5.007812 0.171875 -5.15625 C 0.175781 -5.074219 0.195312 -4.996094 0.238281 -4.921875 C 0.285156 -4.835938 0.347656 -4.769531 0.429688 -4.71875 C 0.472656 -4.691406 0.511719 -4.671875 0.554688 -4.664062 C 0.558594 -4.664062 0.558594 -4.664062 0.558594 -4.664062 C 0.554688 -4.664062 0.542969 -4.664062 0.535156 -4.664062 C 0.644531 -4.664062 0.746094 -4.691406 0.839844 -4.742188 C 0.902344 -4.777344 0.957031 -4.820312 1 -4.875 C 1.015625 -4.894531 1.027344 -4.914062 1.035156 -4.925781 C 1.03125 -4.917969 1.027344 -4.90625 1.019531 -4.882812 C 0.964844 -4.703125 0.921875 -4.484375 0.890625 -4.222656 C 0.859375 -3.929688 0.839844 -3.660156 0.832031 -3.40625 C 0.824219 -3.132812 0.820312 -2.953125 0.820312 -2.859375 L 0.0195312 -2.859375 L 0.820312 -2.902344 C 0.835938 -2.609375 0.839844 -2.324219 0.832031 -2.039062 C 0.824219 -1.796875 0.828125 -1.558594 0.84375 -1.324219 L 0.84375 -1.28125 C 0.84375 -1.21875 0.835938 -1.078125 0.820312 -0.859375 C 0.808594 -0.722656 0.8125 -0.59375 0.832031 -0.480469 C 0.820312 -0.554688 0.777344 -0.628906 0.707031 -0.707031 C 0.589844 -0.824219 0.457031 -0.886719 0.300781 -0.886719 Z M 0.300781 -0.886719 "/></g></g></g><g fill="#122620" fill-opacity="1"><g transform="translate(55.022455, 19.743206)"><g><path d="M 0.300781 0.714844 C 0 0.714844 -0.25 0.609375 -0.449219 0.402344 C -0.609375 0.238281 -0.707031 0.0273438 -0.746094 -0.226562 C -0.785156 -0.464844 -0.796875 -0.714844 -0.777344 -0.976562 C -0.765625 -1.15625 -0.757812 -1.257812 -0.757812 -1.28125 L 0.0429688 -1.28125 L -0.757812 -1.234375 C -0.773438 -1.515625 -0.777344 -1.796875 -0.769531 -2.082031 C -0.761719 -2.324219 -0.765625 -2.570312 -0.777344 -2.816406 L -0.777344 -2.859375 C -0.777344 -2.964844 -0.777344 -3.164062 -0.769531 -3.445312 C -0.761719 -3.746094 -0.738281 -4.066406 -0.699219 -4.402344 C -0.65625 -4.765625 -0.59375 -5.085938 -0.507812 -5.363281 C -0.441406 -5.574219 -0.351562 -5.746094 -0.242188 -5.882812 C -0.0351562 -6.136719 0.222656 -6.265625 0.535156 -6.265625 C 0.832031 -6.265625 1.082031 -6.199219 1.285156 -6.070312 C 1.4375 -5.976562 1.554688 -5.847656 1.640625 -5.695312 C 1.722656 -5.550781 1.765625 -5.390625 1.769531 -5.21875 C 1.78125 -4.996094 1.769531 -4.71875 1.734375 -4.386719 L 1.734375 -4.367188 L 1.730469 -4.347656 C 1.722656 -4.285156 1.71875 -4.214844 1.71875 -4.128906 L 1.71875 -3.777344 C 1.71875 -3.550781 1.699219 -3.371094 1.65625 -3.246094 C 1.667969 -3.289062 1.675781 -3.320312 1.679688 -3.335938 C 1.675781 -3.3125 1.675781 -3.273438 1.675781 -3.222656 L 0.875 -3.222656 L 0.40625 -3.871094 C 0.511719 -3.949219 0.605469 -4.035156 0.695312 -4.140625 C 0.980469 -4.476562 1.414062 -4.644531 1.984375 -4.644531 C 2.074219 -4.644531 2.191406 -4.644531 2.34375 -4.652344 C 2.519531 -4.660156 2.707031 -4.664062 2.902344 -4.664062 C 3.25 -4.664062 3.578125 -4.644531 3.882812 -4.605469 C 4.140625 -4.570312 4.351562 -4.496094 4.523438 -4.386719 C 4.660156 -4.292969 4.769531 -4.179688 4.847656 -4.042969 C 4.9375 -3.890625 4.984375 -3.722656 4.984375 -3.542969 C 4.984375 -3.285156 4.90625 -3.058594 4.75 -2.863281 C 4.605469 -2.6875 4.417969 -2.5625 4.179688 -2.496094 C 3.957031 -2.433594 3.703125 -2.402344 3.414062 -2.402344 C 3.261719 -2.402344 3.101562 -2.40625 2.941406 -2.414062 C 2.804688 -2.417969 2.683594 -2.421875 2.582031 -2.421875 C 2.265625 -2.421875 2.082031 -2.414062 2.023438 -2.394531 C 2.070312 -2.410156 2.109375 -2.429688 2.144531 -2.453125 C 2.148438 -2.457031 2.152344 -2.460938 2.15625 -2.464844 C 2.15625 -2.464844 2.152344 -2.460938 2.152344 -2.457031 C 2.113281 -2.417969 2.066406 -2.351562 2.011719 -2.257812 L 1.324219 -2.667969 L 2.027344 -2.289062 C 1.9375 -2.125 1.851562 -1.945312 1.769531 -1.753906 C 1.703125 -1.597656 1.652344 -1.425781 1.621094 -1.234375 L 1.613281 -1.1875 C 1.585938 -1.070312 1.574219 -0.945312 1.578125 -0.816406 C 1.589844 -0.515625 1.550781 -0.246094 1.464844 -0.0117188 C 1.367188 0.257812 1.1875 0.457031 0.925781 0.582031 C 0.746094 0.671875 0.535156 0.714844 0.300781 0.714844 Z M 0.300781 -0.886719 C 0.304688 -0.886719 0.3125 -0.886719 0.3125 -0.886719 C 0.3125 -0.886719 0.3125 -0.886719 0.308594 -0.886719 C 0.28125 -0.878906 0.253906 -0.871094 0.222656 -0.855469 C 0.0976562 -0.796875 0.0117188 -0.699219 -0.0351562 -0.566406 C -0.0234375 -0.601562 -0.015625 -0.667969 -0.0195312 -0.761719 C -0.03125 -1.03125 -0.0078125 -1.292969 0.0507812 -1.546875 L 0.832031 -1.367188 L 0.0429688 -1.496094 C 0.0976562 -1.816406 0.183594 -2.117188 0.300781 -2.390625 C 0.402344 -2.625 0.507812 -2.84375 0.617188 -3.046875 L 0.628906 -3.0625 L 0.636719 -3.078125 C 0.910156 -3.539062 1.214844 -3.820312 1.542969 -3.921875 C 1.753906 -3.988281 2.101562 -4.023438 2.582031 -4.023438 C 2.710938 -4.023438 2.855469 -4.019531 3.015625 -4.011719 C 3.152344 -4.003906 3.285156 -4.003906 3.414062 -4.003906 C 3.554688 -4.003906 3.660156 -4.011719 3.738281 -4.035156 C 3.652344 -4.011719 3.574219 -3.957031 3.503906 -3.871094 C 3.421875 -3.769531 3.382812 -3.660156 3.382812 -3.542969 C 3.382812 -3.433594 3.410156 -3.332031 3.46875 -3.234375 C 3.511719 -3.15625 3.570312 -3.09375 3.640625 -3.046875 C 3.671875 -3.027344 3.699219 -3.015625 3.71875 -3.007812 C 3.710938 -3.011719 3.695312 -3.011719 3.671875 -3.015625 C 3.4375 -3.046875 3.179688 -3.0625 2.902344 -3.0625 C 2.730469 -3.0625 2.566406 -3.058594 2.414062 -3.054688 C 2.238281 -3.046875 2.097656 -3.042969 1.984375 -3.042969 C 1.90625 -3.042969 1.851562 -3.035156 1.820312 -3.027344 C 1.847656 -3.035156 1.875 -3.058594 1.910156 -3.097656 C 1.742188 -2.898438 1.554688 -2.726562 1.347656 -2.574219 L 0.0742188 -1.652344 L 0.0742188 -3.222656 C 0.0742188 -3.453125 0.09375 -3.628906 0.136719 -3.753906 C 0.125 -3.710938 0.117188 -3.683594 0.113281 -3.664062 C 0.117188 -3.6875 0.117188 -3.726562 0.117188 -3.777344 L 0.117188 -4.128906 C 0.117188 -4.289062 0.128906 -4.4375 0.148438 -4.574219 L 0.9375 -4.460938 L 0.140625 -4.535156 C 0.167969 -4.800781 0.175781 -5.007812 0.171875 -5.15625 C 0.175781 -5.074219 0.195312 -4.996094 0.238281 -4.921875 C 0.285156 -4.835938 0.347656 -4.769531 0.429688 -4.71875 C 0.472656 -4.691406 0.511719 -4.671875 0.554688 -4.664062 C 0.558594 -4.664062 0.558594 -4.664062 0.558594 -4.664062 C 0.554688 -4.664062 0.542969 -4.664062 0.535156 -4.664062 C 0.644531 -4.664062 0.746094 -4.691406 0.839844 -4.742188 C 0.902344 -4.777344 0.957031 -4.820312 1 -4.875 C 1.015625 -4.894531 1.027344 -4.914062 1.035156 -4.925781 C 1.03125 -4.917969 1.027344 -4.90625 1.019531 -4.882812 C 0.964844 -4.703125 0.921875 -4.484375 0.890625 -4.222656 C 0.859375 -3.929688 0.839844 -3.660156 0.832031 -3.40625 C 0.824219 -3.132812 0.820312 -2.953125 0.820312 -2.859375 L 0.0195312 -2.859375 L 0.820312 -2.902344 C 0.835938 -2.609375 0.839844 -2.324219 0.832031 -2.039062 C 0.824219 -1.796875 0.828125 -1.558594 0.84375 -1.324219 L 0.84375 -1.28125 C 0.84375 -1.21875 0.835938 -1.078125 0.820312 -0.859375 C 0.808594 -0.722656 0.8125 -0.59375 0.832031 -0.480469 C 0.820312 -0.554688 0.777344 -0.628906 0.707031 -0.707031 C 0.589844 -0.824219 0.457031 -0.886719 0.300781 -0.886719 Z M 0.300781 -0.886719 "/></g></g></g><g fill="#122620" fill-opacity="1"><g transform="translate(58.501603, 19.743206)"><g><path d="M 0.609375 -4.570312 C 0.839844 -4.695312 1.101562 -4.867188 1.394531 -5.085938 C 1.53125 -5.191406 1.605469 -5.296875 1.613281 -5.402344 L 2.410156 -5.335938 L 2.535156 -4.546875 C 2.496094 -4.539062 2.429688 -4.496094 2.335938 -4.421875 C 2.183594 -4.296875 2.054688 -4.15625 1.945312 -4.003906 C 1.847656 -3.859375 1.777344 -3.734375 1.746094 -3.628906 L 0.980469 -3.863281 Z M 1.355469 -3.15625 L -0.347656 -2.257812 L 0.21875 -4.097656 C 0.296875 -4.363281 0.4375 -4.636719 0.636719 -4.921875 C 0.828125 -5.191406 1.054688 -5.4375 1.316406 -5.652344 C 1.632812 -5.917969 1.960938 -6.078125 2.289062 -6.128906 L 3.292969 -6.28125 L 3.210938 -5.269531 C 3.160156 -4.691406 2.878906 -4.207031 2.363281 -3.8125 C 2 -3.539062 1.664062 -3.316406 1.355469 -3.15625 Z M -0.777344 -3.351562 C -0.777344 -3.847656 -0.625 -4.363281 -0.320312 -4.898438 C -0.0390625 -5.394531 0.3125 -5.820312 0.734375 -6.175781 C 1.230469 -6.589844 1.75 -6.796875 2.285156 -6.796875 C 2.691406 -6.796875 3.027344 -6.703125 3.289062 -6.511719 C 3.617188 -6.277344 3.792969 -5.941406 3.820312 -5.511719 C 3.851562 -4.953125 3.644531 -4.386719 3.1875 -3.8125 L 3.171875 -3.789062 L 3.148438 -3.769531 C 2.941406 -3.542969 2.644531 -3.292969 2.253906 -3.019531 C 1.796875 -2.691406 1.332031 -2.507812 0.859375 -2.46875 L 0.789062 -3.265625 L 1.589844 -3.265625 C 1.589844 -3.058594 1.597656 -2.878906 1.609375 -2.722656 C 1.605469 -2.746094 1.601562 -2.765625 1.597656 -2.773438 C 1.613281 -2.75 1.636719 -2.71875 1.675781 -2.679688 C 1.703125 -2.652344 1.75 -2.636719 1.8125 -2.636719 C 2.039062 -2.636719 2.289062 -2.714844 2.5625 -2.878906 C 2.9375 -3.097656 3.21875 -3.28125 3.410156 -3.421875 L 3.886719 -2.773438 L 3.371094 -3.390625 C 3.453125 -3.457031 3.519531 -3.511719 3.566406 -3.554688 C 3.625 -3.601562 3.691406 -3.65625 3.769531 -3.71875 L 3.777344 -3.726562 L 3.785156 -3.730469 C 4.019531 -3.914062 4.15625 -4.027344 4.1875 -4.070312 C 4.328125 -4.257812 4.46875 -4.398438 4.613281 -4.488281 C 4.800781 -4.605469 5.078125 -4.664062 5.441406 -4.664062 L 6.109375 -4.664062 L 6.230469 -4.007812 C 6.273438 -3.769531 6.285156 -3.582031 6.269531 -3.445312 C 6.242188 -3.226562 6.125 -2.996094 5.917969 -2.761719 L 5.898438 -2.738281 L 5.882812 -2.722656 C 5.609375 -2.449219 5.265625 -2.140625 4.855469 -1.796875 C 4.425781 -1.4375 3.960938 -1.121094 3.464844 -0.855469 C 2.898438 -0.546875 2.328125 -0.394531 1.75 -0.394531 C 1.425781 -0.394531 1.113281 -0.453125 0.816406 -0.5625 C 0.503906 -0.683594 0.210938 -0.875 -0.0546875 -1.140625 C -0.4375 -1.527344 -0.660156 -1.941406 -0.71875 -2.394531 C -0.757812 -2.699219 -0.777344 -3.015625 -0.777344 -3.351562 Z M 0.820312 -3.351562 C 0.820312 -3.085938 0.835938 -2.835938 0.867188 -2.601562 C 0.878906 -2.511719 0.949219 -2.402344 1.078125 -2.273438 C 1.183594 -2.167969 1.285156 -2.097656 1.382812 -2.0625 C 1.5 -2.019531 1.621094 -1.996094 1.75 -1.996094 C 2.058594 -1.996094 2.375 -2.085938 2.703125 -2.261719 C 3.105469 -2.480469 3.480469 -2.734375 3.832031 -3.027344 C 4.203125 -3.339844 4.507812 -3.613281 4.75 -3.851562 L 5.316406 -3.289062 L 4.710938 -3.8125 C 4.734375 -3.839844 4.746094 -3.855469 4.75 -3.859375 C 4.714844 -3.804688 4.691406 -3.730469 4.679688 -3.644531 C 4.675781 -3.617188 4.675781 -3.597656 4.675781 -3.578125 L 4.675781 -3.574219 C 4.675781 -3.578125 4.675781 -3.582031 4.675781 -3.585938 C 4.671875 -3.617188 4.664062 -3.664062 4.65625 -3.71875 L 5.441406 -3.863281 L 5.441406 -3.0625 C 5.371094 -3.0625 5.320312 -3.0625 5.285156 -3.054688 C 5.332031 -3.0625 5.390625 -3.085938 5.460938 -3.132812 C 5.492188 -3.148438 5.511719 -3.164062 5.523438 -3.179688 C 5.515625 -3.167969 5.5 -3.148438 5.480469 -3.125 C 5.355469 -2.953125 5.113281 -2.734375 4.753906 -2.457031 L 4.269531 -3.09375 L 4.769531 -2.46875 C 4.703125 -2.417969 4.652344 -2.375 4.609375 -2.335938 C 4.554688 -2.292969 4.484375 -2.234375 4.398438 -2.160156 L 4.359375 -2.128906 C 4.125 -1.957031 3.792969 -1.746094 3.375 -1.5 C 2.847656 -1.191406 2.328125 -1.035156 1.8125 -1.035156 C 1.308594 -1.035156 0.886719 -1.207031 0.542969 -1.546875 C 0.21875 -1.871094 0.0429688 -2.21875 0.0117188 -2.59375 C -0.00390625 -2.792969 -0.0117188 -3.015625 -0.0117188 -3.265625 L -0.0117188 -4 L 0.71875 -4.0625 C 0.902344 -4.078125 1.105469 -4.167969 1.332031 -4.324219 C 1.625 -4.535156 1.839844 -4.710938 1.972656 -4.855469 L 2.5625 -4.3125 L 1.933594 -4.808594 C 2.132812 -5.0625 2.230469 -5.265625 2.222656 -5.417969 C 2.222656 -5.394531 2.230469 -5.371094 2.246094 -5.339844 C 2.269531 -5.289062 2.304688 -5.25 2.351562 -5.214844 C 2.371094 -5.199219 2.390625 -5.191406 2.402344 -5.1875 C 2.375 -5.195312 2.335938 -5.199219 2.285156 -5.199219 C 2.136719 -5.199219 1.960938 -5.113281 1.761719 -4.945312 C 1.488281 -4.714844 1.257812 -4.4375 1.070312 -4.109375 C 0.90625 -3.816406 0.820312 -3.566406 0.820312 -3.351562 Z M 0.820312 -3.351562 "/></g></g></g><g fill="#122620" fill-opacity="1"><g transform="translate(63.133352, 19.743206)"><g><path d="M -0.757812 -1.644531 C -0.757812 -2.382812 -0.714844 -3.179688 -0.625 -4.03125 C -0.539062 -4.875 -0.421875 -5.710938 -0.277344 -6.542969 C -0.128906 -7.375 0.03125 -8.128906 0.207031 -8.804688 L 0.214844 -8.828125 L 0.222656 -8.855469 C 0.289062 -9.054688 0.355469 -9.277344 0.421875 -9.527344 C 0.511719 -9.859375 0.632812 -10.152344 0.785156 -10.410156 C 0.90625 -10.613281 1.054688 -10.773438 1.238281 -10.890625 C 1.445312 -11.023438 1.671875 -11.089844 1.921875 -11.089844 C 2.152344 -11.089844 2.359375 -11.035156 2.542969 -10.925781 C 2.765625 -10.792969 2.917969 -10.601562 3 -10.347656 C 3.089844 -10.085938 3.101562 -9.796875 3.035156 -9.480469 C 2.992188 -9.257812 2.933594 -9.050781 2.859375 -8.863281 C 2.816406 -8.742188 2.789062 -8.667969 2.78125 -8.644531 C 2.671875 -8.222656 2.542969 -7.65625 2.394531 -6.9375 C 2.25 -6.214844 2.109375 -5.429688 1.976562 -4.574219 C 1.84375 -3.722656 1.742188 -2.882812 1.671875 -2.046875 C 1.605469 -1.230469 1.589844 -0.5 1.632812 0.152344 C 1.667969 0.734375 1.753906 1.164062 1.890625 1.433594 L 1.175781 1.792969 L 0.800781 1.085938 C 0.910156 1.027344 1.007812 0.929688 1.089844 0.800781 C 1.230469 0.566406 1.351562 0.34375 1.453125 0.128906 L 1.46875 0.0976562 C 1.789062 -0.511719 2.101562 -1.160156 2.40625 -1.84375 C 2.730469 -2.5625 3.066406 -3.238281 3.421875 -3.871094 L 4.121094 -3.480469 L 3.402344 -3.835938 C 3.664062 -4.359375 4.023438 -4.621094 4.484375 -4.621094 C 4.644531 -4.621094 4.796875 -4.582031 4.9375 -4.507812 C 5.070312 -4.4375 5.183594 -4.335938 5.273438 -4.210938 C 5.40625 -4.023438 5.476562 -3.8125 5.476562 -3.585938 C 5.476562 -3.457031 5.441406 -3.308594 5.371094 -3.140625 C 5.335938 -3.058594 5.285156 -2.953125 5.21875 -2.824219 L 4.867188 -2.117188 C 4.738281 -1.859375 4.644531 -1.683594 4.59375 -1.59375 L 3.90625 -2.007812 L 4.628906 -1.664062 C 4.488281 -1.371094 4.332031 -1.027344 4.15625 -0.632812 L 3.632812 0.539062 C 3.453125 0.949219 3.277344 1.300781 3.105469 1.597656 L 3.097656 1.609375 L 2.800781 2.078125 C 2.648438 2.324219 2.480469 2.539062 2.296875 2.722656 C 1.996094 3.019531 1.644531 3.167969 1.238281 3.167969 C 0.941406 3.167969 0.671875 3.09375 0.425781 2.9375 C 0.203125 2.796875 0.0195312 2.597656 -0.128906 2.339844 C -0.339844 1.972656 -0.488281 1.527344 -0.574219 1.007812 C -0.652344 0.546875 -0.703125 0.0742188 -0.726562 -0.410156 C -0.746094 -0.878906 -0.757812 -1.289062 -0.757812 -1.644531 Z M 0.84375 -1.644531 C 0.84375 -1.316406 0.855469 -0.929688 0.875 -0.484375 C 0.894531 -0.0625 0.9375 0.347656 1.003906 0.742188 C 1.058594 1.074219 1.144531 1.34375 1.257812 1.542969 C 1.273438 1.566406 1.28125 1.582031 1.292969 1.589844 C 1.292969 1.59375 1.292969 1.59375 1.292969 1.59375 C 1.292969 1.589844 1.289062 1.589844 1.285156 1.585938 C 1.265625 1.574219 1.25 1.570312 1.238281 1.570312 C 1.203125 1.570312 1.175781 1.574219 1.164062 1.589844 C 1.261719 1.488281 1.355469 1.371094 1.445312 1.230469 L 1.734375 0.769531 L 2.410156 1.195312 L 1.71875 0.792969 C 1.863281 0.546875 2.011719 0.246094 2.171875 -0.113281 L 2.695312 -1.285156 C 2.875 -1.691406 3.039062 -2.046875 3.183594 -2.351562 L 3.199219 -2.386719 L 3.21875 -2.417969 C 3.25 -2.472656 3.324219 -2.609375 3.4375 -2.835938 L 3.789062 -3.539062 C 3.835938 -3.636719 3.871094 -3.710938 3.894531 -3.761719 C 3.898438 -3.773438 3.902344 -3.777344 3.902344 -3.785156 L 3.902344 -3.78125 C 3.882812 -3.722656 3.875 -3.660156 3.875 -3.585938 C 3.875 -3.472656 3.90625 -3.371094 3.96875 -3.28125 C 4.023438 -3.203125 4.09375 -3.144531 4.179688 -3.097656 C 4.277344 -3.046875 4.375 -3.019531 4.484375 -3.019531 C 4.628906 -3.019531 4.75 -3.0625 4.84375 -3.152344 C 4.855469 -3.164062 4.863281 -3.171875 4.867188 -3.175781 C 4.859375 -3.164062 4.847656 -3.144531 4.835938 -3.121094 L 4.820312 -3.089844 C 4.488281 -2.496094 4.171875 -1.863281 3.867188 -1.1875 C 3.546875 -0.476562 3.222656 0.199219 2.886719 0.839844 L 2.175781 0.46875 L 2.902344 0.808594 C 2.773438 1.078125 2.625 1.351562 2.453125 1.632812 C 2.222656 2.015625 1.917969 2.304688 1.546875 2.5 L 0.824219 2.882812 L 0.457031 2.152344 C 0.222656 1.683594 0.0820312 1.050781 0.0351562 0.253906 C -0.0117188 -0.476562 0.00390625 -1.289062 0.078125 -2.179688 C 0.148438 -3.050781 0.253906 -3.933594 0.394531 -4.820312 C 0.53125 -5.699219 0.675781 -6.511719 0.828125 -7.257812 C 0.980469 -8.003906 1.113281 -8.597656 1.230469 -9.03125 C 1.25 -9.117188 1.296875 -9.253906 1.363281 -9.429688 C 1.40625 -9.539062 1.441406 -9.660156 1.46875 -9.792969 C 1.472656 -9.824219 1.476562 -9.847656 1.476562 -9.867188 C 1.476562 -9.863281 1.476562 -9.855469 1.480469 -9.84375 C 1.523438 -9.71875 1.601562 -9.625 1.71875 -9.554688 C 1.789062 -9.511719 1.859375 -9.488281 1.921875 -9.488281 C 1.984375 -9.488281 2.046875 -9.507812 2.101562 -9.542969 C 2.132812 -9.5625 2.152344 -9.578125 2.160156 -9.59375 C 2.085938 -9.460938 2.019531 -9.300781 1.96875 -9.109375 C 1.894531 -8.832031 1.816406 -8.578125 1.742188 -8.347656 L 0.980469 -8.601562 L 1.757812 -8.398438 C 1.589844 -7.765625 1.4375 -7.054688 1.300781 -6.265625 C 1.160156 -5.472656 1.050781 -4.671875 0.96875 -3.867188 C 0.882812 -3.070312 0.84375 -2.328125 0.84375 -1.644531 Z M 0.84375 -1.644531 "/></g></g></g><g fill="#122620" fill-opacity="1"><g transform="translate(66.889981, 19.743206)"><g><path d="M -0.757812 -1.644531 C -0.757812 -2.382812 -0.714844 -3.179688 -0.625 -4.03125 C -0.539062 -4.875 -0.421875 -5.710938 -0.277344 -6.542969 C -0.128906 -7.375 0.03125 -8.128906 0.207031 -8.804688 L 0.214844 -8.828125 L 0.222656 -8.855469 C 0.289062 -9.054688 0.355469 -9.277344 0.421875 -9.527344 C 0.511719 -9.859375 0.632812 -10.152344 0.785156 -10.410156 C 0.90625 -10.613281 1.054688 -10.773438 1.238281 -10.890625 C 1.445312 -11.023438 1.671875 -11.089844 1.921875 -11.089844 C 2.152344 -11.089844 2.359375 -11.035156 2.542969 -10.925781 C 2.765625 -10.792969 2.917969 -10.601562 3 -10.347656 C 3.089844 -10.085938 3.101562 -9.796875 3.035156 -9.480469 C 2.992188 -9.257812 2.933594 -9.050781 2.859375 -8.863281 C 2.816406 -8.742188 2.789062 -8.667969 2.78125 -8.644531 C 2.671875 -8.222656 2.542969 -7.65625 2.394531 -6.9375 C 2.25 -6.214844 2.109375 -5.429688 1.976562 -4.574219 C 1.84375 -3.722656 1.742188 -2.882812 1.671875 -2.046875 C 1.605469 -1.230469 1.589844 -0.5 1.632812 0.152344 C 1.667969 0.734375 1.753906 1.164062 1.890625 1.433594 L 1.175781 1.792969 L 0.800781 1.085938 C 0.910156 1.027344 1.007812 0.929688 1.089844 0.800781 C 1.230469 0.566406 1.351562 0.34375 1.453125 0.128906 L 1.46875 0.0976562 C 1.789062 -0.511719 2.101562 -1.160156 2.40625 -1.84375 C 2.730469 -2.5625 3.066406 -3.238281 3.421875 -3.871094 L 4.121094 -3.480469 L 3.402344 -3.835938 C 3.664062 -4.359375 4.023438 -4.621094 4.484375 -4.621094 C 4.644531 -4.621094 4.796875 -4.582031 4.9375 -4.507812 C 5.070312 -4.4375 5.183594 -4.335938 5.273438 -4.210938 C 5.40625 -4.023438 5.476562 -3.8125 5.476562 -3.585938 C 5.476562 -3.457031 5.441406 -3.308594 5.371094 -3.140625 C 5.335938 -3.058594 5.285156 -2.953125 5.21875 -2.824219 L 4.867188 -2.117188 C 4.738281 -1.859375 4.644531 -1.683594 4.59375 -1.59375 L 3.90625 -2.007812 L 4.628906 -1.664062 C 4.488281 -1.371094 4.332031 -1.027344 4.15625 -0.632812 L 3.632812 0.539062 C 3.453125 0.949219 3.277344 1.300781 3.105469 1.597656 L 3.097656 1.609375 L 2.800781 2.078125 C 2.648438 2.324219 2.480469 2.539062 2.296875 2.722656 C 1.996094 3.019531 1.644531 3.167969 1.238281 3.167969 C 0.941406 3.167969 0.671875 3.09375 0.425781 2.9375 C 0.203125 2.796875 0.0195312 2.597656 -0.128906 2.339844 C -0.339844 1.972656 -0.488281 1.527344 -0.574219 1.007812 C -0.652344 0.546875 -0.703125 0.0742188 -0.726562 -0.410156 C -0.746094 -0.878906 -0.757812 -1.289062 -0.757812 -1.644531 Z M 0.84375 -1.644531 C 0.84375 -1.316406 0.855469 -0.929688 0.875 -0.484375 C 0.894531 -0.0625 0.9375 0.347656 1.003906 0.742188 C 1.058594 1.074219 1.144531 1.34375 1.257812 1.542969 C 1.273438 1.566406 1.28125 1.582031 1.292969 1.589844 C 1.292969 1.59375 1.292969 1.59375 1.292969 1.59375 C 1.292969 1.589844 1.289062 1.589844 1.285156 1.585938 C 1.265625 1.574219 1.25 1.570312 1.238281 1.570312 C 1.203125 1.570312 1.175781 1.574219 1.164062 1.589844 C 1.261719 1.488281 1.355469 1.371094 1.445312 1.230469 L 1.734375 0.769531 L 2.410156 1.195312 L 1.71875 0.792969 C 1.863281 0.546875 2.011719 0.246094 2.171875 -0.113281 L 2.695312 -1.285156 C 2.875 -1.691406 3.039062 -2.046875 3.183594 -2.351562 L 3.199219 -2.386719 L 3.21875 -2.417969 C 3.25 -2.472656 3.324219 -2.609375 3.4375 -2.835938 L 3.789062 -3.539062 C 3.835938 -3.636719 3.871094 -3.710938 3.894531 -3.761719 C 3.898438 -3.773438 3.902344 -3.777344 3.902344 -3.785156 L 3.902344 -3.78125 C 3.882812 -3.722656 3.875 -3.660156 3.875 -3.585938 C 3.875 -3.472656 3.90625 -3.371094 3.96875 -3.28125 C 4.023438 -3.203125 4.09375 -3.144531 4.179688 -3.097656 C 4.277344 -3.046875 4.375 -3.019531 4.484375 -3.019531 C 4.628906 -3.019531 4.75 -3.0625 4.84375 -3.152344 C 4.855469 -3.164062 4.863281 -3.171875 4.867188 -3.175781 C 4.859375 -3.164062 4.847656 -3.144531 4.835938 -3.121094 L 4.820312 -3.089844 C 4.488281 -2.496094 4.171875 -1.863281 3.867188 -1.1875 C 3.546875 -0.476562 3.222656 0.199219 2.886719 0.839844 L 2.175781 0.46875 L 2.902344 0.808594 C 2.773438 1.078125 2.625 1.351562 2.453125 1.632812 C 2.222656 2.015625 1.917969 2.304688 1.546875 2.5 L 0.824219 2.882812 L 0.457031 2.152344 C 0.222656 1.683594 0.0820312 1.050781 0.0351562 0.253906 C -0.0117188 -0.476562 0.00390625 -1.289062 0.078125 -2.179688 C 0.148438 -3.050781 0.253906 -3.933594 0.394531 -4.820312 C 0.53125 -5.699219 0.675781 -6.511719 0.828125 -7.257812 C 0.980469 -8.003906 1.113281 -8.597656 1.230469 -9.03125 C 1.25 -9.117188 1.296875 -9.253906 1.363281 -9.429688 C 1.40625 -9.539062 1.441406 -9.660156 1.46875 -9.792969 C 1.472656 -9.824219 1.476562 -9.847656 1.476562 -9.867188 C 1.476562 -9.863281 1.476562 -9.855469 1.480469 -9.84375 C 1.523438 -9.71875 1.601562 -9.625 1.71875 -9.554688 C 1.789062 -9.511719 1.859375 -9.488281 1.921875 -9.488281 C 1.984375 -9.488281 2.046875 -9.507812 2.101562 -9.542969 C 2.132812 -9.5625 2.152344 -9.578125 2.160156 -9.59375 C 2.085938 -9.460938 2.019531 -9.300781 1.96875 -9.109375 C 1.894531 -8.832031 1.816406 -8.578125 1.742188 -8.347656 L 0.980469 -8.601562 L 1.757812 -8.398438 C 1.589844 -7.765625 1.4375 -7.054688 1.300781 -6.265625 C 1.160156 -5.472656 1.050781 -4.671875 0.96875 -3.867188 C 0.882812 -3.070312 0.84375 -2.328125 0.84375 -1.644531 Z M 0.84375 -1.644531 "/></g></g></g><g fill="#122620" fill-opacity="1"><g transform="translate(70.646606, 19.743206)"><g><path d="M 0.609375 -4.570312 C 0.839844 -4.695312 1.101562 -4.867188 1.394531 -5.085938 C 1.53125 -5.191406 1.605469 -5.296875 1.613281 -5.402344 L 2.410156 -5.335938 L 2.535156 -4.546875 C 2.496094 -4.539062 2.429688 -4.496094 2.335938 -4.421875 C 2.183594 -4.296875 2.054688 -4.15625 1.945312 -4.003906 C 1.847656 -3.859375 1.777344 -3.734375 1.746094 -3.628906 L 0.980469 -3.863281 Z M 1.355469 -3.15625 L -0.347656 -2.257812 L 0.21875 -4.097656 C 0.296875 -4.363281 0.4375 -4.636719 0.636719 -4.921875 C 0.828125 -5.191406 1.054688 -5.4375 1.316406 -5.652344 C 1.632812 -5.917969 1.960938 -6.078125 2.289062 -6.128906 L 3.292969 -6.28125 L 3.210938 -5.269531 C 3.160156 -4.691406 2.878906 -4.207031 2.363281 -3.8125 C 2 -3.539062 1.664062 -3.316406 1.355469 -3.15625 Z M -0.777344 -3.351562 C -0.777344 -3.847656 -0.625 -4.363281 -0.320312 -4.898438 C -0.0390625 -5.394531 0.3125 -5.820312 0.734375 -6.175781 C 1.230469 -6.589844 1.75 -6.796875 2.285156 -6.796875 C 2.691406 -6.796875 3.027344 -6.703125 3.289062 -6.511719 C 3.617188 -6.277344 3.792969 -5.941406 3.820312 -5.511719 C 3.851562 -4.953125 3.644531 -4.386719 3.1875 -3.8125 L 3.171875 -3.789062 L 3.148438 -3.769531 C 2.941406 -3.542969 2.644531 -3.292969 2.253906 -3.019531 C 1.796875 -2.691406 1.332031 -2.507812 0.859375 -2.46875 L 0.789062 -3.265625 L 1.589844 -3.265625 C 1.589844 -3.058594 1.597656 -2.878906 1.609375 -2.722656 C 1.605469 -2.746094 1.601562 -2.765625 1.597656 -2.773438 C 1.613281 -2.75 1.636719 -2.71875 1.675781 -2.679688 C 1.703125 -2.652344 1.75 -2.636719 1.8125 -2.636719 C 2.039062 -2.636719 2.289062 -2.714844 2.5625 -2.878906 C 2.9375 -3.097656 3.21875 -3.28125 3.410156 -3.421875 L 3.886719 -2.773438 L 3.371094 -3.390625 C 3.453125 -3.457031 3.519531 -3.511719 3.566406 -3.554688 C 3.625 -3.601562 3.691406 -3.65625 3.769531 -3.71875 L 3.777344 -3.726562 L 3.785156 -3.730469 C 4.019531 -3.914062 4.15625 -4.027344 4.1875 -4.070312 C 4.328125 -4.257812 4.46875 -4.398438 4.613281 -4.488281 C 4.800781 -4.605469 5.078125 -4.664062 5.441406 -4.664062 L 6.109375 -4.664062 L 6.230469 -4.007812 C 6.273438 -3.769531 6.285156 -3.582031 6.269531 -3.445312 C 6.242188 -3.226562 6.125 -2.996094 5.917969 -2.761719 L 5.898438 -2.738281 L 5.882812 -2.722656 C 5.609375 -2.449219 5.265625 -2.140625 4.855469 -1.796875 C 4.425781 -1.4375 3.960938 -1.121094 3.464844 -0.855469 C 2.898438 -0.546875 2.328125 -0.394531 1.75 -0.394531 C 1.425781 -0.394531 1.113281 -0.453125 0.816406 -0.5625 C 0.503906 -0.683594 0.210938 -0.875 -0.0546875 -1.140625 C -0.4375 -1.527344 -0.660156 -1.941406 -0.71875 -2.394531 C -0.757812 -2.699219 -0.777344 -3.015625 -0.777344 -3.351562 Z M 0.820312 -3.351562 C 0.820312 -3.085938 0.835938 -2.835938 0.867188 -2.601562 C 0.878906 -2.511719 0.949219 -2.402344 1.078125 -2.273438 C 1.183594 -2.167969 1.285156 -2.097656 1.382812 -2.0625 C 1.5 -2.019531 1.621094 -1.996094 1.75 -1.996094 C 2.058594 -1.996094 2.375 -2.085938 2.703125 -2.261719 C 3.105469 -2.480469 3.480469 -2.734375 3.832031 -3.027344 C 4.203125 -3.339844 4.507812 -3.613281 4.75 -3.851562 L 5.316406 -3.289062 L 4.710938 -3.8125 C 4.734375 -3.839844 4.746094 -3.855469 4.75 -3.859375 C 4.714844 -3.804688 4.691406 -3.730469 4.679688 -3.644531 C 4.675781 -3.617188 4.675781 -3.597656 4.675781 -3.578125 L 4.675781 -3.574219 C 4.675781 -3.578125 4.675781 -3.582031 4.675781 -3.585938 C 4.671875 -3.617188 4.664062 -3.664062 4.65625 -3.71875 L 5.441406 -3.863281 L 5.441406 -3.0625 C 5.371094 -3.0625 5.320312 -3.0625 5.285156 -3.054688 C 5.332031 -3.0625 5.390625 -3.085938 5.460938 -3.132812 C 5.492188 -3.148438 5.511719 -3.164062 5.523438 -3.179688 C 5.515625 -3.167969 5.5 -3.148438 5.480469 -3.125 C 5.355469 -2.953125 5.113281 -2.734375 4.753906 -2.457031 L 4.269531 -3.09375 L 4.769531 -2.46875 C 4.703125 -2.417969 4.652344 -2.375 4.609375 -2.335938 C 4.554688 -2.292969 4.484375 -2.234375 4.398438 -2.160156 L 4.359375 -2.128906 C 4.125 -1.957031 3.792969 -1.746094 3.375 -1.5 C 2.847656 -1.191406 2.328125 -1.035156 1.8125 -1.035156 C 1.308594 -1.035156 0.886719 -1.207031 0.542969 -1.546875 C 0.21875 -1.871094 0.0429688 -2.21875 0.0117188 -2.59375 C -0.00390625 -2.792969 -0.0117188 -3.015625 -0.0117188 -3.265625 L -0.0117188 -4 L 0.71875 -4.0625 C 0.902344 -4.078125 1.105469 -4.167969 1.332031 -4.324219 C 1.625 -4.535156 1.839844 -4.710938 1.972656 -4.855469 L 2.5625 -4.3125 L 1.933594 -4.808594 C 2.132812 -5.0625 2.230469 -5.265625 2.222656 -5.417969 C 2.222656 -5.394531 2.230469 -5.371094 2.246094 -5.339844 C 2.269531 -5.289062 2.304688 -5.25 2.351562 -5.214844 C 2.371094 -5.199219 2.390625 -5.191406 2.402344 -5.1875 C 2.375 -5.195312 2.335938 -5.199219 2.285156 -5.199219 C 2.136719 -5.199219 1.960938 -5.113281 1.761719 -4.945312 C 1.488281 -4.714844 1.257812 -4.4375 1.070312 -4.109375 C 0.90625 -3.816406 0.820312 -3.566406 0.820312 -3.351562 Z M 0.820312 -3.351562 "/></g></g></g><g fill="#122620" fill-opacity="1"><g transform="translate(75.278357, 19.743206)"><g><path d="M 1.054688 3.523438 C 1.054688 3.535156 1.058594 3.546875 1.058594 3.554688 C 1.050781 3.519531 1.03125 3.480469 1.007812 3.4375 C 0.953125 3.351562 0.882812 3.285156 0.792969 3.238281 C 0.707031 3.191406 0.621094 3.167969 0.535156 3.167969 C 0.496094 3.167969 0.464844 3.175781 0.433594 3.183594 C 0.429688 3.1875 0.425781 3.1875 0.421875 3.191406 C 0.421875 3.1875 0.425781 3.1875 0.429688 3.183594 C 0.515625 3.128906 0.585938 3.082031 0.632812 3.046875 L 0.640625 3.039062 L 0.652344 3.03125 C 0.835938 2.890625 1.011719 2.660156 1.175781 2.335938 C 1.371094 1.949219 1.511719 1.605469 1.597656 1.300781 C 1.652344 1.117188 1.679688 0.9375 1.6875 0.757812 C 1.695312 0.515625 1.695312 0.25 1.695312 -0.0429688 L 2.496094 -0.0429688 L 2.902344 0.648438 C 2.804688 0.707031 2.671875 0.824219 2.507812 1.011719 C 2.296875 1.253906 2.128906 1.445312 2.007812 1.59375 C 1.78125 1.871094 1.554688 2.210938 1.328125 2.613281 C 1.148438 2.933594 1.054688 3.234375 1.054688 3.523438 Z M -0.542969 3.523438 C -0.542969 2.953125 -0.386719 2.390625 -0.0664062 1.828125 C 0.203125 1.34375 0.484375 0.929688 0.769531 0.582031 C 0.902344 0.417969 1.082031 0.207031 1.3125 -0.0507812 C 1.589844 -0.363281 1.847656 -0.589844 2.09375 -0.734375 L 3.296875 -1.4375 L 3.296875 -0.0429688 C 3.296875 0.265625 3.292969 0.546875 3.285156 0.800781 C 3.277344 1.121094 3.230469 1.429688 3.140625 1.730469 C 3.027344 2.136719 2.847656 2.582031 2.601562 3.0625 C 2.324219 3.609375 1.996094 4.023438 1.613281 4.3125 L 1.132812 3.671875 L 1.632812 4.296875 C 1.535156 4.371094 1.417969 4.453125 1.277344 4.542969 C 1.035156 4.695312 0.785156 4.769531 0.535156 4.769531 C 0.351562 4.769531 0.1875 4.730469 0.03125 4.648438 C -0.128906 4.5625 -0.257812 4.4375 -0.355469 4.28125 C -0.480469 4.074219 -0.542969 3.824219 -0.542969 3.523438 Z M -0.738281 -3.457031 C -0.738281 -3.992188 -0.589844 -4.472656 -0.296875 -4.902344 C -0.0390625 -5.285156 0.277344 -5.59375 0.644531 -5.828125 C 1.054688 -6.089844 1.4375 -6.222656 1.792969 -6.222656 C 1.992188 -6.222656 2.179688 -6.179688 2.347656 -6.097656 C 2.535156 -6.007812 2.6875 -5.878906 2.804688 -5.703125 C 3.023438 -5.390625 3.0625 -4.976562 2.929688 -4.472656 L 2.808594 -4.011719 L 2.351562 -3.898438 C 2.140625 -3.847656 1.984375 -3.8125 1.871094 -3.804688 C 1.964844 -3.8125 2.050781 -3.851562 2.132812 -3.921875 C 2.121094 -3.910156 2.074219 -3.855469 1.984375 -3.757812 C 1.886719 -3.648438 1.820312 -3.5625 1.785156 -3.496094 L 1.78125 -3.496094 C 1.792969 -3.53125 1.792969 -3.574219 1.789062 -3.621094 C 1.785156 -3.648438 1.777344 -3.671875 1.769531 -3.6875 C 1.777344 -3.671875 1.796875 -3.652344 1.832031 -3.625 L 2.597656 -3.019531 C 2.972656 -2.722656 3.320312 -2.332031 3.636719 -1.847656 L 2.96875 -1.410156 L 2.515625 -2.070312 C 2.804688 -2.265625 3.097656 -2.496094 3.402344 -2.761719 L 3.433594 -2.789062 L 5.453125 -4.199219 C 5.695312 -4.367188 5.917969 -4.488281 6.117188 -4.5625 C 6.339844 -4.644531 6.550781 -4.683594 6.746094 -4.683594 C 7.050781 -4.683594 7.300781 -4.589844 7.492188 -4.398438 C 7.625 -4.265625 7.710938 -4.105469 7.746094 -3.921875 C 7.773438 -3.789062 7.773438 -3.65625 7.742188 -3.515625 C 7.667969 -3.136719 7.40625 -2.816406 6.957031 -2.554688 L 6.554688 -3.246094 L 7.007812 -2.585938 L 5.511719 -1.550781 L 5.460938 -1.523438 C 5.441406 -1.515625 5.359375 -1.457031 5.210938 -1.347656 L 4.605469 -0.902344 C 4.40625 -0.757812 4.238281 -0.621094 4.101562 -0.496094 C 4.042969 -0.441406 4 -0.398438 3.972656 -0.371094 C 3.96875 -0.367188 3.96875 -0.363281 3.964844 -0.363281 C 3.96875 -0.367188 3.972656 -0.371094 3.976562 -0.378906 C 4.015625 -0.429688 4.042969 -0.488281 4.066406 -0.558594 L 3.308594 -0.8125 L 4.09375 -0.652344 C 4.105469 -0.710938 4.109375 -0.753906 4.105469 -0.78125 C 4.109375 -0.746094 4.121094 -0.695312 4.140625 -0.625 C 4.214844 -0.371094 4.261719 -0.0546875 4.289062 0.320312 C 4.316406 0.71875 4.265625 1.1875 4.140625 1.726562 C 4.015625 2.269531 3.757812 2.878906 3.359375 3.5625 C 2.984375 4.195312 2.558594 4.671875 2.089844 4.988281 C 1.585938 5.328125 1.085938 5.496094 0.597656 5.496094 C 0.0703125 5.496094 -0.367188 5.316406 -0.714844 4.953125 C -1.054688 4.597656 -1.226562 4.121094 -1.226562 3.523438 C -1.226562 2.910156 -1.082031 2.316406 -0.785156 1.746094 C -0.523438 1.234375 -0.207031 0.765625 0.160156 0.335938 C 0.5 -0.0664062 0.816406 -0.414062 1.109375 -0.703125 C 1.351562 -0.945312 1.496094 -1.105469 1.554688 -1.191406 L 2.21875 -0.746094 L 1.523438 -0.351562 C 1.394531 -0.574219 1.242188 -0.769531 1.0625 -0.933594 C 0.832031 -1.140625 0.609375 -1.332031 0.390625 -1.503906 C 0.101562 -1.734375 -0.140625 -1.976562 -0.339844 -2.238281 C -0.605469 -2.585938 -0.738281 -2.992188 -0.738281 -3.457031 Z M 0.863281 -3.457031 C 0.863281 -3.351562 0.886719 -3.269531 0.9375 -3.207031 C 1.050781 -3.054688 1.199219 -2.90625 1.382812 -2.761719 C 1.632812 -2.566406 1.882812 -2.351562 2.140625 -2.117188 C 2.445312 -1.839844 2.703125 -1.515625 2.914062 -1.144531 L 3.160156 -0.714844 L 2.886719 -0.304688 C 2.769531 -0.132812 2.554688 0.113281 2.242188 0.425781 C 1.980469 0.691406 1.691406 1.003906 1.378906 1.371094 C 1.089844 1.710938 0.84375 2.078125 0.636719 2.480469 C 0.460938 2.820312 0.375 3.167969 0.375 3.523438 C 0.375 3.691406 0.394531 3.796875 0.4375 3.839844 C 0.472656 3.878906 0.527344 3.894531 0.597656 3.894531 C 0.761719 3.894531 0.960938 3.816406 1.195312 3.660156 C 1.46875 3.476562 1.726562 3.175781 1.976562 2.757812 C 2.292969 2.214844 2.492188 1.75 2.582031 1.367188 C 2.671875 0.980469 2.707031 0.667969 2.691406 0.425781 C 2.671875 0.164062 2.644531 -0.0390625 2.601562 -0.1875 C 2.511719 -0.507812 2.484375 -0.769531 2.523438 -0.96875 L 2.535156 -1.015625 L 2.550781 -1.0625 C 2.59375 -1.195312 2.675781 -1.324219 2.796875 -1.457031 C 2.855469 -1.519531 2.929688 -1.59375 3.027344 -1.679688 C 3.203125 -1.839844 3.414062 -2.011719 3.65625 -2.191406 L 4.265625 -2.640625 C 4.488281 -2.804688 4.648438 -2.910156 4.742188 -2.957031 L 5.101562 -2.242188 L 4.644531 -2.898438 L 6.121094 -3.917969 L 6.148438 -3.933594 C 6.203125 -3.96875 6.238281 -3.992188 6.253906 -4.007812 C 6.21875 -3.96875 6.191406 -3.910156 6.171875 -3.828125 C 6.160156 -3.757812 6.160156 -3.6875 6.175781 -3.609375 C 6.203125 -3.476562 6.265625 -3.363281 6.359375 -3.265625 C 6.4375 -3.1875 6.527344 -3.132812 6.628906 -3.105469 C 6.671875 -3.089844 6.710938 -3.085938 6.746094 -3.085938 L 6.75 -3.082031 C 6.726562 -3.078125 6.699219 -3.070312 6.667969 -3.058594 C 6.597656 -3.03125 6.5 -2.976562 6.371094 -2.886719 L 4.386719 -1.5 L 3.925781 -2.15625 L 4.453125 -1.550781 C 4.101562 -1.246094 3.757812 -0.980469 3.417969 -0.746094 L 2.746094 -0.289062 L 2.296875 -0.96875 C 2.074219 -1.308594 1.84375 -1.574219 1.605469 -1.761719 L 0.835938 -2.371094 C 0.457031 -2.671875 0.242188 -3.03125 0.195312 -3.445312 C 0.148438 -3.875 0.347656 -4.335938 0.789062 -4.820312 C 0.929688 -4.980469 1.035156 -5.089844 1.109375 -5.152344 C 1.277344 -5.292969 1.480469 -5.371094 1.714844 -5.394531 C 1.746094 -5.398438 1.828125 -5.417969 1.960938 -5.453125 L 2.15625 -4.675781 L 1.382812 -4.878906 C 1.398438 -4.941406 1.40625 -4.984375 1.40625 -5.007812 C 1.40625 -4.941406 1.433594 -4.871094 1.484375 -4.796875 C 1.527344 -4.738281 1.582031 -4.691406 1.648438 -4.660156 C 1.699219 -4.632812 1.75 -4.621094 1.792969 -4.621094 L 1.796875 -4.621094 C 1.78125 -4.617188 1.765625 -4.613281 1.746094 -4.605469 C 1.679688 -4.582031 1.601562 -4.539062 1.511719 -4.480469 C 1.324219 -4.363281 1.160156 -4.199219 1.023438 -4 C 0.917969 -3.84375 0.863281 -3.664062 0.863281 -3.457031 Z M 0.863281 -3.457031 "/></g></g></g><g fill="#fffef9" fill-opacity="1"><g transform="translate(33.699334, 19.743206)"><g><path d="M 11.25 0.890625 L 11.484375 -1.328125 C 11.648438 -2.671875 11.8125 -3.9375 11.96875 -5.125 C 12.125 -6.320312 12.289062 -7.488281 12.46875 -8.625 C 12.65625 -9.757812 12.863281 -10.925781 13.09375 -12.125 C 13.332031 -13.320312 13.609375 -14.609375 13.921875 -15.984375 C 13.660156 -15.984375 13.304688 -15.945312 12.859375 -15.875 C 12.421875 -15.800781 11.9375 -15.710938 11.40625 -15.609375 C 10.875 -15.515625 10.335938 -15.40625 9.796875 -15.28125 C 9.265625 -15.164062 8.78125 -15.054688 8.34375 -14.953125 C 7.90625 -14.859375 7.566406 -14.785156 7.328125 -14.734375 C 6.796875 -14.585938 6.28125 -14.445312 5.78125 -14.3125 C 5.28125 -14.175781 4.773438 -14.03125 4.265625 -13.875 C 4.023438 -13.800781 3.710938 -13.695312 3.328125 -13.5625 C 2.941406 -13.4375 2.582031 -13.296875 2.25 -13.140625 C 1.914062 -12.984375 1.691406 -12.820312 1.578125 -12.65625 C 1.640625 -12.46875 1.75 -12.320312 1.90625 -12.21875 C 2.0625 -12.125 2.207031 -12.019531 2.34375 -11.90625 L 4.84375 -10.09375 C 6 -9.226562 7.015625 -8.269531 7.890625 -7.21875 C 8.765625 -6.175781 9.460938 -4.976562 9.984375 -3.625 C 10.335938 -2.75 10.578125 -2.046875 10.703125 -1.515625 C 10.835938 -0.984375 10.929688 -0.546875 10.984375 -0.203125 C 11.035156 0.128906 11.109375 0.460938 11.203125 0.796875 Z M 0.859375 -12.8125 C 0.859375 -12.976562 0.925781 -13.132812 1.0625 -13.28125 C 1.207031 -13.4375 1.367188 -13.570312 1.546875 -13.6875 C 1.722656 -13.8125 1.867188 -13.910156 1.984375 -13.984375 L 3.5625 -14.640625 C 5.21875 -15.210938 6.898438 -15.6875 8.609375 -16.0625 C 10.328125 -16.445312 12.046875 -16.734375 13.765625 -16.921875 C 13.992188 -16.953125 14.128906 -16.992188 14.171875 -17.046875 C 14.222656 -17.097656 14.257812 -17.144531 14.28125 -17.1875 C 14.3125 -17.238281 14.382812 -17.265625 14.5 -17.265625 C 14.695312 -17.265625 14.800781 -17.25 14.8125 -17.21875 C 14.820312 -17.195312 14.835938 -17.164062 14.859375 -17.125 C 14.878906 -17.09375 14.992188 -17.066406 15.203125 -17.046875 C 15.253906 -17.046875 15.304688 -17.046875 15.359375 -17.046875 C 15.421875 -17.046875 15.476562 -17.046875 15.53125 -17.046875 C 15.757812 -17.046875 16.007812 -17.050781 16.28125 -17.0625 C 16.550781 -17.070312 16.804688 -17.078125 17.046875 -17.078125 C 17.117188 -17.078125 17.1875 -17.078125 17.25 -17.078125 C 17.320312 -17.078125 17.382812 -17.078125 17.4375 -17.078125 C 17.582031 -17.054688 17.859375 -17.023438 18.265625 -16.984375 C 18.671875 -16.941406 19.148438 -16.882812 19.703125 -16.8125 C 20.253906 -16.75 20.820312 -16.671875 21.40625 -16.578125 C 21.988281 -16.484375 22.53125 -16.378906 23.03125 -16.265625 C 23.539062 -16.148438 23.953125 -16.023438 24.265625 -15.890625 C 24.578125 -15.765625 24.734375 -15.625 24.734375 -15.46875 C 24.734375 -15.226562 24.65625 -15.109375 24.5 -15.109375 C 24.40625 -15.109375 24.28125 -15.128906 24.125 -15.171875 C 23.976562 -15.210938 23.789062 -15.265625 23.5625 -15.328125 C 23.132812 -15.421875 22.628906 -15.519531 22.046875 -15.625 C 21.472656 -15.738281 20.875 -15.835938 20.25 -15.921875 C 19.625 -16.003906 19.023438 -16.070312 18.453125 -16.125 C 17.890625 -16.175781 17.410156 -16.203125 17.015625 -16.203125 C 16.640625 -16.203125 16.304688 -16.1875 16.015625 -16.15625 C 15.722656 -16.125 15.378906 -16.109375 14.984375 -16.109375 C 14.972656 -16.066406 14.929688 -15.894531 14.859375 -15.59375 C 14.796875 -15.300781 14.722656 -14.960938 14.640625 -14.578125 C 14.566406 -14.191406 14.5 -13.835938 14.4375 -13.515625 C 14.382812 -13.203125 14.351562 -12.992188 14.34375 -12.890625 L 13.1875 -6.375 C 13 -5.195312 12.835938 -4.054688 12.703125 -2.953125 C 12.566406 -1.847656 12.421875 -0.726562 12.265625 0.40625 C 12.222656 0.71875 12.191406 1.007812 12.171875 1.28125 C 12.148438 1.550781 12.117188 1.847656 12.078125 2.171875 L 11.375 9.109375 C 11.363281 9.253906 11.347656 9.429688 11.328125 9.640625 C 11.316406 9.859375 11.28125 10.050781 11.21875 10.21875 C 11.15625 10.394531 11.046875 10.484375 10.890625 10.484375 C 10.796875 10.484375 10.726562 10.457031 10.6875 10.40625 C 10.644531 10.351562 10.585938 10.304688 10.515625 10.265625 L 10.890625 4.203125 C 10.890625 3.585938 10.847656 2.929688 10.765625 2.234375 C 10.691406 1.535156 10.585938 0.84375 10.453125 0.15625 C 10.316406 -0.53125 10.171875 -1.148438 10.015625 -1.703125 C 9.796875 -2.503906 9.546875 -3.210938 9.265625 -3.828125 C 8.984375 -4.453125 8.660156 -5.039062 8.296875 -5.59375 C 7.929688 -6.144531 7.519531 -6.707031 7.0625 -7.28125 C 6.757812 -7.664062 6.394531 -8.035156 5.96875 -8.390625 C 5.539062 -8.753906 5.097656 -9.109375 4.640625 -9.453125 C 4.191406 -9.796875 3.785156 -10.101562 3.421875 -10.375 L 1.46875 -11.765625 C 1.3125 -11.878906 1.171875 -12.015625 1.046875 -12.171875 C 0.921875 -12.328125 0.859375 -12.539062 0.859375 -12.8125 Z M 0.859375 -12.8125 "/></g></g></g><g fill="#fffef9" fill-opacity="1"><g transform="translate(47.78668, 19.743206)"><g><path d="M 1.0625 -0.484375 C 1.28125 -0.546875 1.472656 -0.734375 1.640625 -1.046875 C 1.816406 -1.367188 1.9375 -1.738281 2 -2.15625 C 2.070312 -2.570312 2.085938 -2.953125 2.046875 -3.296875 C 2.015625 -3.648438 1.910156 -3.890625 1.734375 -4.015625 C 1.691406 -3.859375 1.613281 -3.632812 1.5 -3.34375 C 1.382812 -3.050781 1.269531 -2.726562 1.15625 -2.375 C 1.050781 -2.03125 0.976562 -1.691406 0.9375 -1.359375 C 0.90625 -1.023438 0.945312 -0.734375 1.0625 -0.484375 Z M 0 -1.21875 C 0 -1.40625 0.0351562 -1.675781 0.109375 -2.03125 C 0.191406 -2.394531 0.300781 -2.785156 0.4375 -3.203125 C 0.582031 -3.628906 0.742188 -4.03125 0.921875 -4.40625 C 1.097656 -4.78125 1.289062 -5.085938 1.5 -5.328125 C 1.707031 -5.578125 1.921875 -5.703125 2.140625 -5.703125 C 2.273438 -5.703125 2.367188 -5.632812 2.421875 -5.5 C 2.484375 -5.375 2.5 -5.269531 2.46875 -5.1875 C 2.445312 -5.113281 2.394531 -5.039062 2.3125 -4.96875 C 2.238281 -4.894531 2.171875 -4.816406 2.109375 -4.734375 C 2.140625 -4.640625 2.210938 -4.53125 2.328125 -4.40625 C 2.441406 -4.28125 2.554688 -4.117188 2.671875 -3.921875 C 2.785156 -3.722656 2.859375 -3.453125 2.890625 -3.109375 C 2.929688 -2.773438 2.894531 -2.328125 2.78125 -1.765625 C 2.625 -1.023438 2.375 -0.46875 2.03125 -0.09375 C 1.6875 0.269531 1.351562 0.453125 1.03125 0.453125 C 0.757812 0.453125 0.519531 0.3125 0.3125 0.03125 C 0.101562 -0.25 0 -0.664062 0 -1.21875 Z M 0 -1.21875 "/></g></g></g><g fill="#fffef9" fill-opacity="1"><g transform="translate(51.543307, 19.743206)"><g><path d="M 0.296875 -0.078125 C 0.148438 -0.078125 0.0625 -0.164062 0.03125 -0.34375 C 0.0078125 -0.53125 0.00390625 -0.722656 0.015625 -0.921875 C 0.0351562 -1.117188 0.046875 -1.238281 0.046875 -1.28125 C 0.0234375 -1.539062 0.0195312 -1.800781 0.03125 -2.0625 C 0.0390625 -2.320312 0.0351562 -2.585938 0.015625 -2.859375 C 0.015625 -2.960938 0.0195312 -3.148438 0.03125 -3.421875 C 0.0390625 -3.703125 0.0625 -4 0.09375 -4.3125 C 0.132812 -4.625 0.1875 -4.894531 0.25 -5.125 C 0.320312 -5.351562 0.414062 -5.46875 0.53125 -5.46875 C 0.8125 -5.46875 0.957031 -5.375 0.96875 -5.1875 C 0.976562 -5 0.96875 -4.753906 0.9375 -4.453125 C 0.925781 -4.359375 0.921875 -4.25 0.921875 -4.125 C 0.921875 -4.007812 0.921875 -3.894531 0.921875 -3.78125 C 0.921875 -3.632812 0.910156 -3.539062 0.890625 -3.5 C 0.878906 -3.457031 0.875 -3.363281 0.875 -3.21875 C 1.03125 -3.332031 1.171875 -3.460938 1.296875 -3.609375 C 1.429688 -3.765625 1.660156 -3.84375 1.984375 -3.84375 C 2.085938 -3.84375 2.21875 -3.84375 2.375 -3.84375 C 2.539062 -3.851562 2.71875 -3.859375 2.90625 -3.859375 C 3.21875 -3.859375 3.507812 -3.835938 3.78125 -3.796875 C 4.050781 -3.765625 4.1875 -3.679688 4.1875 -3.546875 C 4.1875 -3.398438 4.109375 -3.304688 3.953125 -3.265625 C 3.804688 -3.222656 3.628906 -3.203125 3.421875 -3.203125 C 3.273438 -3.203125 3.125 -3.203125 2.96875 -3.203125 C 2.820312 -3.210938 2.691406 -3.21875 2.578125 -3.21875 C 2.179688 -3.21875 1.914062 -3.195312 1.78125 -3.15625 C 1.644531 -3.113281 1.492188 -2.953125 1.328125 -2.671875 C 1.222656 -2.484375 1.125 -2.28125 1.03125 -2.0625 C 0.9375 -1.851562 0.867188 -1.617188 0.828125 -1.359375 C 0.785156 -1.179688 0.769531 -0.988281 0.78125 -0.78125 C 0.789062 -0.582031 0.769531 -0.414062 0.71875 -0.28125 C 0.664062 -0.144531 0.523438 -0.078125 0.296875 -0.078125 Z M 0.296875 -0.078125 "/></g></g></g><g fill="#fffef9" fill-opacity="1"><g transform="translate(55.022455, 19.743206)"><g><path d="M 0.296875 -0.078125 C 0.148438 -0.078125 0.0625 -0.164062 0.03125 -0.34375 C 0.0078125 -0.53125 0.00390625 -0.722656 0.015625 -0.921875 C 0.0351562 -1.117188 0.046875 -1.238281 0.046875 -1.28125 C 0.0234375 -1.539062 0.0195312 -1.800781 0.03125 -2.0625 C 0.0390625 -2.320312 0.0351562 -2.585938 0.015625 -2.859375 C 0.015625 -2.960938 0.0195312 -3.148438 0.03125 -3.421875 C 0.0390625 -3.703125 0.0625 -4 0.09375 -4.3125 C 0.132812 -4.625 0.1875 -4.894531 0.25 -5.125 C 0.320312 -5.351562 0.414062 -5.46875 0.53125 -5.46875 C 0.8125 -5.46875 0.957031 -5.375 0.96875 -5.1875 C 0.976562 -5 0.96875 -4.753906 0.9375 -4.453125 C 0.925781 -4.359375 0.921875 -4.25 0.921875 -4.125 C 0.921875 -4.007812 0.921875 -3.894531 0.921875 -3.78125 C 0.921875 -3.632812 0.910156 -3.539062 0.890625 -3.5 C 0.878906 -3.457031 0.875 -3.363281 0.875 -3.21875 C 1.03125 -3.332031 1.171875 -3.460938 1.296875 -3.609375 C 1.429688 -3.765625 1.660156 -3.84375 1.984375 -3.84375 C 2.085938 -3.84375 2.21875 -3.84375 2.375 -3.84375 C 2.539062 -3.851562 2.71875 -3.859375 2.90625 -3.859375 C 3.21875 -3.859375 3.507812 -3.835938 3.78125 -3.796875 C 4.050781 -3.765625 4.1875 -3.679688 4.1875 -3.546875 C 4.1875 -3.398438 4.109375 -3.304688 3.953125 -3.265625 C 3.804688 -3.222656 3.628906 -3.203125 3.421875 -3.203125 C 3.273438 -3.203125 3.125 -3.203125 2.96875 -3.203125 C 2.820312 -3.210938 2.691406 -3.21875 2.578125 -3.21875 C 2.179688 -3.21875 1.914062 -3.195312 1.78125 -3.15625 C 1.644531 -3.113281 1.492188 -2.953125 1.328125 -2.671875 C 1.222656 -2.484375 1.125 -2.28125 1.03125 -2.0625 C 0.9375 -1.851562 0.867188 -1.617188 0.828125 -1.359375 C 0.785156 -1.179688 0.769531 -0.988281 0.78125 -0.78125 C 0.789062 -0.582031 0.769531 -0.414062 0.71875 -0.28125 C 0.664062 -0.144531 0.523438 -0.078125 0.296875 -0.078125 Z M 0.296875 -0.078125 "/></g></g></g><g fill="#fffef9" fill-opacity="1"><g transform="translate(58.501603, 19.743206)"><g><path d="M 0.984375 -3.859375 C 1.253906 -4.003906 1.550781 -4.203125 1.875 -4.453125 C 2.207031 -4.703125 2.382812 -4.992188 2.40625 -5.328125 C 2.226562 -5.304688 2.035156 -5.207031 1.828125 -5.03125 C 1.617188 -4.863281 1.4375 -4.671875 1.28125 -4.453125 C 1.132812 -4.242188 1.035156 -4.046875 0.984375 -3.859375 Z M 0.015625 -3.34375 C 0.015625 -3.707031 0.128906 -4.09375 0.359375 -4.5 C 0.597656 -4.914062 0.890625 -5.269531 1.234375 -5.5625 C 1.585938 -5.851562 1.9375 -6 2.28125 -6 C 2.75 -6 2.992188 -5.820312 3.015625 -5.46875 C 3.035156 -5.113281 2.882812 -4.726562 2.5625 -4.3125 C 2.394531 -4.125 2.140625 -3.910156 1.796875 -3.671875 C 1.453125 -3.429688 1.117188 -3.296875 0.796875 -3.265625 C 0.796875 -3.035156 0.800781 -2.832031 0.8125 -2.65625 C 0.820312 -2.476562 0.921875 -2.296875 1.109375 -2.109375 C 1.296875 -1.921875 1.53125 -1.828125 1.8125 -1.828125 C 2.1875 -1.828125 2.570312 -1.945312 2.96875 -2.1875 C 3.363281 -2.425781 3.671875 -2.625 3.890625 -2.78125 C 3.972656 -2.84375 4.035156 -2.894531 4.078125 -2.9375 C 4.128906 -2.988281 4.191406 -3.039062 4.265625 -3.09375 C 4.566406 -3.320312 4.753906 -3.488281 4.828125 -3.59375 C 4.910156 -3.695312 4.976562 -3.765625 5.03125 -3.796875 C 5.09375 -3.835938 5.226562 -3.859375 5.4375 -3.859375 C 5.46875 -3.703125 5.476562 -3.59375 5.46875 -3.53125 C 5.46875 -3.476562 5.414062 -3.394531 5.3125 -3.28125 C 5.0625 -3.03125 4.738281 -2.738281 4.34375 -2.40625 C 3.945312 -2.082031 3.523438 -1.796875 3.078125 -1.546875 C 2.628906 -1.304688 2.1875 -1.1875 1.75 -1.1875 C 1.519531 -1.1875 1.300781 -1.226562 1.09375 -1.3125 C 0.894531 -1.394531 0.703125 -1.523438 0.515625 -1.703125 C 0.253906 -1.960938 0.101562 -2.226562 0.0625 -2.5 C 0.03125 -2.769531 0.015625 -3.050781 0.015625 -3.34375 Z M 0.015625 -3.34375 "/></g></g></g><g fill="#fffef9" fill-opacity="1"><g transform="translate(63.133352, 19.743206)"><g><path d="M 0.046875 -1.640625 C 0.046875 -2.347656 0.0859375 -3.113281 0.171875 -3.9375 C 0.253906 -4.769531 0.363281 -5.59375 0.5 -6.40625 C 0.644531 -7.21875 0.804688 -7.945312 0.984375 -8.59375 C 1.054688 -8.8125 1.125 -9.050781 1.1875 -9.3125 C 1.257812 -9.582031 1.351562 -9.8125 1.46875 -10 C 1.582031 -10.1875 1.734375 -10.28125 1.921875 -10.28125 C 2.085938 -10.28125 2.191406 -10.21875 2.234375 -10.09375 C 2.285156 -9.96875 2.289062 -9.816406 2.25 -9.640625 C 2.21875 -9.460938 2.171875 -9.296875 2.109375 -9.140625 C 2.054688 -8.992188 2.019531 -8.894531 2 -8.84375 C 1.882812 -8.414062 1.753906 -7.832031 1.609375 -7.09375 C 1.460938 -6.363281 1.320312 -5.5625 1.1875 -4.6875 C 1.050781 -3.820312 0.945312 -2.960938 0.875 -2.109375 C 0.800781 -1.253906 0.785156 -0.484375 0.828125 0.203125 C 0.867188 0.890625 0.984375 1.421875 1.171875 1.796875 C 1.410156 1.660156 1.609375 1.460938 1.765625 1.203125 C 1.921875 0.953125 2.054688 0.707031 2.171875 0.46875 C 2.503906 -0.15625 2.828125 -0.816406 3.140625 -1.515625 C 3.453125 -2.210938 3.78125 -2.867188 4.125 -3.484375 C 4.238281 -3.710938 4.359375 -3.828125 4.484375 -3.828125 C 4.535156 -3.828125 4.578125 -3.800781 4.609375 -3.75 C 4.648438 -3.695312 4.671875 -3.640625 4.671875 -3.578125 C 4.671875 -3.535156 4.613281 -3.398438 4.5 -3.171875 C 4.382812 -2.953125 4.265625 -2.71875 4.140625 -2.46875 C 4.023438 -2.226562 3.945312 -2.070312 3.90625 -2 C 3.757812 -1.707031 3.597656 -1.359375 3.421875 -0.953125 C 3.242188 -0.554688 3.066406 -0.164062 2.890625 0.21875 C 2.722656 0.601562 2.5625 0.925781 2.40625 1.1875 C 2.34375 1.300781 2.25 1.453125 2.125 1.640625 C 2 1.835938 1.863281 2.007812 1.71875 2.15625 C 1.582031 2.300781 1.421875 2.375 1.234375 2.375 C 0.953125 2.375 0.726562 2.226562 0.5625 1.9375 C 0.394531 1.65625 0.273438 1.300781 0.203125 0.875 C 0.140625 0.445312 0.0976562 0.0078125 0.078125 -0.4375 C 0.0546875 -0.894531 0.046875 -1.296875 0.046875 -1.640625 Z M 0.046875 -1.640625 "/></g></g></g><g fill="#fffef9" fill-opacity="1"><g transform="translate(66.889981, 19.743206)"><g><path d="M 0.046875 -1.640625 C 0.046875 -2.347656 0.0859375 -3.113281 0.171875 -3.9375 C 0.253906 -4.769531 0.363281 -5.59375 0.5 -6.40625 C 0.644531 -7.21875 0.804688 -7.945312 0.984375 -8.59375 C 1.054688 -8.8125 1.125 -9.050781 1.1875 -9.3125 C 1.257812 -9.582031 1.351562 -9.8125 1.46875 -10 C 1.582031 -10.1875 1.734375 -10.28125 1.921875 -10.28125 C 2.085938 -10.28125 2.191406 -10.21875 2.234375 -10.09375 C 2.285156 -9.96875 2.289062 -9.816406 2.25 -9.640625 C 2.21875 -9.460938 2.171875 -9.296875 2.109375 -9.140625 C 2.054688 -8.992188 2.019531 -8.894531 2 -8.84375 C 1.882812 -8.414062 1.753906 -7.832031 1.609375 -7.09375 C 1.460938 -6.363281 1.320312 -5.5625 1.1875 -4.6875 C 1.050781 -3.820312 0.945312 -2.960938 0.875 -2.109375 C 0.800781 -1.253906 0.785156 -0.484375 0.828125 0.203125 C 0.867188 0.890625 0.984375 1.421875 1.171875 1.796875 C 1.410156 1.660156 1.609375 1.460938 1.765625 1.203125 C 1.921875 0.953125 2.054688 0.707031 2.171875 0.46875 C 2.503906 -0.15625 2.828125 -0.816406 3.140625 -1.515625 C 3.453125 -2.210938 3.78125 -2.867188 4.125 -3.484375 C 4.238281 -3.710938 4.359375 -3.828125 4.484375 -3.828125 C 4.535156 -3.828125 4.578125 -3.800781 4.609375 -3.75 C 4.648438 -3.695312 4.671875 -3.640625 4.671875 -3.578125 C 4.671875 -3.535156 4.613281 -3.398438 4.5 -3.171875 C 4.382812 -2.953125 4.265625 -2.71875 4.140625 -2.46875 C 4.023438 -2.226562 3.945312 -2.070312 3.90625 -2 C 3.757812 -1.707031 3.597656 -1.359375 3.421875 -0.953125 C 3.242188 -0.554688 3.066406 -0.164062 2.890625 0.21875 C 2.722656 0.601562 2.5625 0.925781 2.40625 1.1875 C 2.34375 1.300781 2.25 1.453125 2.125 1.640625 C 2 1.835938 1.863281 2.007812 1.71875 2.15625 C 1.582031 2.300781 1.421875 2.375 1.234375 2.375 C 0.953125 2.375 0.726562 2.226562 0.5625 1.9375 C 0.394531 1.65625 0.273438 1.300781 0.203125 0.875 C 0.140625 0.445312 0.0976562 0.0078125 0.078125 -0.4375 C 0.0546875 -0.894531 0.046875 -1.296875 0.046875 -1.640625 Z M 0.046875 -1.640625 "/></g></g></g><g fill="#fffef9" fill-opacity="1"><g transform="translate(70.646606, 19.743206)"><g><path d="M 0.984375 -3.859375 C 1.253906 -4.003906 1.550781 -4.203125 1.875 -4.453125 C 2.207031 -4.703125 2.382812 -4.992188 2.40625 -5.328125 C 2.226562 -5.304688 2.035156 -5.207031 1.828125 -5.03125 C 1.617188 -4.863281 1.4375 -4.671875 1.28125 -4.453125 C 1.132812 -4.242188 1.035156 -4.046875 0.984375 -3.859375 Z M 0.015625 -3.34375 C 0.015625 -3.707031 0.128906 -4.09375 0.359375 -4.5 C 0.597656 -4.914062 0.890625 -5.269531 1.234375 -5.5625 C 1.585938 -5.851562 1.9375 -6 2.28125 -6 C 2.75 -6 2.992188 -5.820312 3.015625 -5.46875 C 3.035156 -5.113281 2.882812 -4.726562 2.5625 -4.3125 C 2.394531 -4.125 2.140625 -3.910156 1.796875 -3.671875 C 1.453125 -3.429688 1.117188 -3.296875 0.796875 -3.265625 C 0.796875 -3.035156 0.800781 -2.832031 0.8125 -2.65625 C 0.820312 -2.476562 0.921875 -2.296875 1.109375 -2.109375 C 1.296875 -1.921875 1.53125 -1.828125 1.8125 -1.828125 C 2.1875 -1.828125 2.570312 -1.945312 2.96875 -2.1875 C 3.363281 -2.425781 3.671875 -2.625 3.890625 -2.78125 C 3.972656 -2.84375 4.035156 -2.894531 4.078125 -2.9375 C 4.128906 -2.988281 4.191406 -3.039062 4.265625 -3.09375 C 4.566406 -3.320312 4.753906 -3.488281 4.828125 -3.59375 C 4.910156 -3.695312 4.976562 -3.765625 5.03125 -3.796875 C 5.09375 -3.835938 5.226562 -3.859375 5.4375 -3.859375 C 5.46875 -3.703125 5.476562 -3.59375 5.46875 -3.53125 C 5.46875 -3.476562 5.414062 -3.394531 5.3125 -3.28125 C 5.0625 -3.03125 4.738281 -2.738281 4.34375 -2.40625 C 3.945312 -2.082031 3.523438 -1.796875 3.078125 -1.546875 C 2.628906 -1.304688 2.1875 -1.1875 1.75 -1.1875 C 1.519531 -1.1875 1.300781 -1.226562 1.09375 -1.3125 C 0.894531 -1.394531 0.703125 -1.523438 0.515625 -1.703125 C 0.253906 -1.960938 0.101562 -2.226562 0.0625 -2.5 C 0.03125 -2.769531 0.015625 -3.050781 0.015625 -3.34375 Z M 0.015625 -3.34375 "/></g></g></g><g fill="#fffef9" fill-opacity="1"><g transform="translate(75.278357, 19.743206)"><g><path d="M 0.25 3.515625 C 0.25 3.816406 0.34375 3.96875 0.53125 3.96875 C 0.632812 3.96875 0.742188 3.929688 0.859375 3.859375 C 0.972656 3.785156 1.0625 3.722656 1.125 3.671875 C 1.414062 3.453125 1.671875 3.125 1.890625 2.6875 C 2.109375 2.257812 2.269531 1.867188 2.375 1.515625 C 2.4375 1.273438 2.472656 1.03125 2.484375 0.78125 C 2.492188 0.53125 2.5 0.253906 2.5 -0.046875 C 2.320312 0.0546875 2.125 0.234375 1.90625 0.484375 C 1.6875 0.734375 1.515625 0.9375 1.390625 1.09375 C 1.128906 1.40625 0.875 1.78125 0.625 2.21875 C 0.375 2.65625 0.25 3.085938 0.25 3.515625 Z M 0.0625 -3.453125 C 0.0625 -3.828125 0.160156 -4.160156 0.359375 -4.453125 C 0.554688 -4.742188 0.796875 -4.976562 1.078125 -5.15625 C 1.359375 -5.332031 1.597656 -5.421875 1.796875 -5.421875 C 1.953125 -5.421875 2.066406 -5.363281 2.140625 -5.25 C 2.222656 -5.132812 2.226562 -4.941406 2.15625 -4.671875 C 1.988281 -4.628906 1.867188 -4.601562 1.796875 -4.59375 C 1.722656 -4.59375 1.664062 -4.570312 1.625 -4.53125 C 1.582031 -4.5 1.503906 -4.421875 1.390625 -4.296875 C 1.097656 -3.984375 0.960938 -3.726562 0.984375 -3.53125 C 1.015625 -3.34375 1.128906 -3.164062 1.328125 -3 C 1.535156 -2.832031 1.789062 -2.628906 2.09375 -2.390625 C 2.40625 -2.148438 2.695312 -1.820312 2.96875 -1.40625 C 3.28125 -1.625 3.597656 -1.875 3.921875 -2.15625 L 5.90625 -3.546875 C 6.09375 -3.671875 6.253906 -3.757812 6.390625 -3.8125 C 6.523438 -3.863281 6.644531 -3.890625 6.75 -3.890625 C 6.914062 -3.890625 6.984375 -3.816406 6.953125 -3.671875 C 6.929688 -3.523438 6.796875 -3.382812 6.546875 -3.25 L 5.09375 -2.234375 C 5.039062 -2.210938 4.921875 -2.132812 4.734375 -2 C 4.546875 -1.863281 4.34375 -1.710938 4.125 -1.546875 C 3.90625 -1.378906 3.71875 -1.222656 3.5625 -1.078125 C 3.40625 -0.941406 3.320312 -0.851562 3.3125 -0.8125 C 3.289062 -0.738281 3.304688 -0.601562 3.359375 -0.40625 C 3.421875 -0.207031 3.460938 0.0507812 3.484375 0.375 C 3.503906 0.695312 3.460938 1.085938 3.359375 1.546875 C 3.253906 2.003906 3.023438 2.539062 2.671875 3.15625 C 2.359375 3.6875 2.015625 4.078125 1.640625 4.328125 C 1.273438 4.578125 0.925781 4.703125 0.59375 4.703125 C 0.300781 4.703125 0.0625 4.597656 -0.125 4.390625 C -0.320312 4.191406 -0.421875 3.898438 -0.421875 3.515625 C -0.421875 3.035156 -0.300781 2.566406 -0.0625 2.109375 C 0.164062 1.660156 0.441406 1.242188 0.765625 0.859375 C 1.097656 0.472656 1.398438 0.140625 1.671875 -0.140625 C 1.953125 -0.421875 2.132812 -0.625 2.21875 -0.75 C 2.050781 -1.039062 1.84375 -1.296875 1.59375 -1.515625 C 1.351562 -1.742188 1.113281 -1.945312 0.875 -2.125 C 0.644531 -2.3125 0.453125 -2.507812 0.296875 -2.71875 C 0.140625 -2.925781 0.0625 -3.171875 0.0625 -3.453125 Z M 0.0625 -3.453125 "/></g></g></g><path fill="#122620" d="M 75.230469 28.417969 C 74.828125 28.945312 74.398438 29.449219 73.941406 29.925781 C 73.480469 30.402344 72.996094 30.851562 72.484375 31.273438 C 71.976562 31.695312 71.441406 32.089844 70.886719 32.449219 C 70.332031 32.808594 69.757812 33.136719 69.164062 33.433594 C 68.570312 33.726562 67.960938 33.988281 67.339844 34.210938 C 66.714844 34.4375 66.082031 34.625 65.4375 34.777344 C 64.792969 34.929688 64.140625 35.046875 63.484375 35.121094 C 62.824219 35.199219 62.164062 35.238281 61.503906 35.242188 C 60.839844 35.242188 60.179688 35.207031 59.523438 35.132812 C 58.863281 35.058594 58.210938 34.945312 57.566406 34.796875 C 56.921875 34.648438 56.285156 34.464844 55.664062 34.242188 C 55.039062 34.019531 54.429688 33.761719 53.835938 33.472656 C 53.238281 33.179688 52.664062 32.855469 52.105469 32.496094 C 51.546875 32.136719 51.011719 31.75 50.5 31.332031 C 49.988281 30.910156 49.5 30.464844 49.039062 29.988281 C 48.578125 29.511719 48.144531 29.011719 47.742188 28.488281 L 50.800781 26.132812 C 51.113281 26.542969 51.449219 26.929688 51.808594 27.300781 C 52.167969 27.671875 52.546875 28.019531 52.945312 28.34375 C 53.34375 28.667969 53.757812 28.972656 54.191406 29.25 C 54.625 29.527344 55.070312 29.78125 55.535156 30.007812 C 55.996094 30.234375 56.46875 30.433594 56.953125 30.605469 C 57.441406 30.777344 57.933594 30.921875 58.433594 31.039062 C 58.9375 31.152344 59.441406 31.242188 59.953125 31.296875 C 60.464844 31.355469 60.980469 31.382812 61.492188 31.382812 C 62.007812 31.382812 62.519531 31.351562 63.03125 31.289062 C 63.542969 31.230469 64.050781 31.140625 64.550781 31.023438 C 65.050781 30.90625 65.542969 30.757812 66.027344 30.582031 C 66.511719 30.40625 66.984375 30.207031 67.445312 29.976562 C 67.90625 29.746094 68.355469 29.492188 68.785156 29.210938 C 69.21875 28.933594 69.632812 28.628906 70.027344 28.300781 C 70.425781 27.972656 70.800781 27.621094 71.160156 27.25 C 71.515625 26.878906 71.847656 26.488281 72.160156 26.082031 Z M 75.230469 28.417969 " fill-opacity="1" fill-rule="nonzero"/><g fill="#fffef9" fill-opacity="1"><g transform="translate(48.946106, 28.46718)"><g><path d="M 1.515625 -1.09375 L 2.03125 -0.5625 C 2.226562 -0.351562 2.320312 -0.125 2.3125 0.125 C 2.3125 0.375 2.21875 0.585938 2.03125 0.765625 C 1.84375 0.953125 1.617188 1.039062 1.359375 1.03125 C 1.109375 1.03125 0.882812 0.925781 0.6875 0.71875 L 0.171875 0.1875 Z M 1.53125 -0.6875 L 0.59375 0.21875 L 0.90625 0.546875 C 1.03125 0.671875 1.175781 0.738281 1.34375 0.75 C 1.519531 0.757812 1.675781 0.695312 1.8125 0.5625 C 1.945312 0.4375 2.015625 0.28125 2.015625 0.09375 C 2.023438 -0.0820312 1.960938 -0.238281 1.828125 -0.375 Z M 1.53125 -0.6875 "/></g></g></g><g fill="#fffef9" fill-opacity="1"><g transform="translate(51.535483, 30.921973)"><g><path d="M 2.1875 -0.40625 L 1.359375 -0.984375 L 1.078125 -0.578125 L 1.828125 -0.0625 L 1.671875 0.171875 L 0.921875 -0.34375 L 0.625 0.078125 L 1.484375 0.671875 L 1.328125 0.90625 L 0.203125 0.140625 L 1.25 -1.390625 L 2.34375 -0.640625 Z M 2.1875 -0.40625 "/></g></g></g><g fill="#fffef9" fill-opacity="1"><g transform="translate(54.296488, 32.627998)"><g><path d="M 1 0.421875 L 0.6875 0.296875 L 0.734375 -1.71875 L 1.03125 -1.578125 L 0.984375 0.046875 L 2.109375 -1.140625 L 2.40625 -1.015625 Z M 1 0.421875 "/></g></g></g><g fill="#fffef9" fill-opacity="1"><g transform="translate(57.429345, 33.772582)"><g><path d="M 1.859375 -1.234375 L 0.859375 -1.4375 L 0.75 -0.953125 L 1.640625 -0.78125 L 1.59375 -0.5 L 0.703125 -0.671875 L 0.59375 -0.171875 L 1.625 0.03125 L 1.578125 0.3125 L 0.25 0.046875 L 0.609375 -1.78125 L 1.90625 -1.515625 Z M 1.859375 -1.234375 "/></g></g></g><g fill="#fffef9" fill-opacity="1"><g transform="translate(60.625484, 34.247411)"><g><path d="M 0.5625 -0.28125 L 1.359375 -0.265625 L 1.359375 0.015625 L 0.25 0 L 0.265625 -1.859375 L 0.578125 -1.859375 Z M 0.5625 -0.28125 "/></g></g></g><g fill="#fffef9" fill-opacity="1"><g transform="translate(63.546644, 34.154714)"><g><path d="M 0.0625 -1.640625 C 0.207031 -1.859375 0.414062 -1.992188 0.6875 -2.046875 C 0.96875 -2.109375 1.21875 -2.0625 1.4375 -1.90625 C 1.664062 -1.757812 1.800781 -1.554688 1.84375 -1.296875 C 1.894531 -1.035156 1.84375 -0.800781 1.6875 -0.59375 C 1.539062 -0.382812 1.328125 -0.25 1.046875 -0.1875 C 0.773438 -0.132812 0.53125 -0.175781 0.3125 -0.3125 C 0.09375 -0.457031 -0.0351562 -0.660156 -0.078125 -0.921875 C -0.128906 -1.179688 -0.0820312 -1.421875 0.0625 -1.640625 Z M 0.765625 -1.75 C 0.578125 -1.71875 0.429688 -1.628906 0.328125 -1.484375 C 0.222656 -1.335938 0.1875 -1.171875 0.21875 -0.984375 C 0.257812 -0.804688 0.359375 -0.664062 0.515625 -0.5625 C 0.671875 -0.46875 0.835938 -0.4375 1.015625 -0.46875 C 1.191406 -0.507812 1.328125 -0.601562 1.421875 -0.75 C 1.523438 -0.894531 1.554688 -1.054688 1.515625 -1.234375 C 1.484375 -1.421875 1.394531 -1.5625 1.25 -1.65625 C 1.101562 -1.757812 0.941406 -1.789062 0.765625 -1.75 Z M 0.765625 -1.75 "/></g></g></g><g fill="#fffef9" fill-opacity="1"><g transform="translate(67.104207, 33.271738)"><g><path d="M -0.5 -1.796875 L 0.171875 -2.09375 C 0.390625 -2.1875 0.578125 -2.207031 0.734375 -2.15625 C 0.890625 -2.113281 1.007812 -2 1.09375 -1.8125 C 1.175781 -1.613281 1.179688 -1.4375 1.109375 -1.28125 C 1.046875 -1.125 0.90625 -1 0.6875 -0.90625 L 0.296875 -0.734375 L 0.515625 -0.21875 L 0.234375 -0.09375 Z M -0.109375 -1.671875 L 0.1875 -1 L 0.5625 -1.171875 C 0.84375 -1.285156 0.929688 -1.457031 0.828125 -1.6875 C 0.734375 -1.90625 0.546875 -1.957031 0.265625 -1.84375 Z M -0.109375 -1.671875 "/></g></g></g><g fill="#fffef9" fill-opacity="1"><g transform="translate(70.060294, 31.830063)"><g><path d="M 0.390625 -2.203125 L -0.4375 -1.625 L -0.140625 -1.21875 L 0.59375 -1.734375 L 0.75 -1.5 L 0.015625 -0.984375 L 0.3125 -0.5625 L 1.171875 -1.15625 L 1.328125 -0.921875 L 0.203125 -0.140625 L -0.859375 -1.671875 L 0.234375 -2.4375 Z M 0.390625 -2.203125 "/></g></g></g><g fill="#fffef9" fill-opacity="1"><g transform="translate(72.642472, 29.858938)"><g><path d="M 0.984375 -1.03125 L 0.328125 -1.171875 C 0.328125 -1.160156 0.3125 -1.140625 0.28125 -1.109375 L -0.015625 -0.796875 L 0.390625 -0.40625 L 0.171875 -0.1875 L -1.171875 -1.46875 L -0.65625 -2 C -0.488281 -2.175781 -0.320312 -2.269531 -0.15625 -2.28125 C 0.0078125 -2.300781 0.164062 -2.242188 0.3125 -2.109375 C 0.425781 -2.003906 0.492188 -1.890625 0.515625 -1.765625 C 0.546875 -1.648438 0.535156 -1.535156 0.484375 -1.421875 L 1.21875 -1.296875 Z M -0.21875 -0.984375 L 0.078125 -1.296875 C 0.285156 -1.515625 0.296875 -1.710938 0.109375 -1.890625 C -0.0546875 -2.046875 -0.242188 -2.015625 -0.453125 -1.796875 L -0.75 -1.484375 Z M -0.21875 -0.984375 "/></g></g></g></svg>